<svg xmlns="http://www.w3.org/2000/svg" xmlns:xlink="http://www.w3.org/1999/xlink" viewBox="0 0 127.21 143.85"><defs><style>.cls-1{isolation:isolate;}.cls-2{fill:url(#linear-gradient);}.cls-3,.cls-8{opacity:0.3;}.cls-4{fill:url(#linear-gradient-2);}.cls-5{fill:#3d150b;}.cls-6{fill:url(#radial-gradient);}.cls-7{fill:#512013;}.cls-8{mix-blend-mode:screen;}.cls-9{fill:#64332f;}.cls-10{fill:url(#linear-gradient-3);}.cls-11{fill:url(#linear-gradient-4);}.cls-12{fill:url(#linear-gradient-5);}.cls-13{fill:url(#linear-gradient-6);}.cls-14{fill:url(#linear-gradient-7);}.cls-15,.cls-20,.cls-24,.cls-25,.cls-41,.cls-42,.cls-43,.cls-44,.cls-45,.cls-46,.cls-47,.cls-48,.cls-49,.cls-50,.cls-51,.cls-52,.cls-53,.cls-54,.cls-55,.cls-56,.cls-57,.cls-58{opacity:0.6;}.cls-15{fill:url(#radial-gradient-2);}.cls-16{fill:#fff5fe;}.cls-17{fill:#fffafe;}.cls-18{fill:#fcdefa;}.cls-19{fill:#e2ace1;}.cls-20{fill:url(#radial-gradient-3);}.cls-21{fill:url(#linear-gradient-8);}.cls-22{fill:url(#linear-gradient-9);}.cls-23{fill:url(#radial-gradient-4);}.cls-24{fill:url(#radial-gradient-5);}.cls-25{fill:url(#radial-gradient-6);}.cls-26{fill:url(#linear-gradient-10);}.cls-27{fill:url(#linear-gradient-11);}.cls-28{fill:url(#radial-gradient-7);}.cls-29{fill:url(#linear-gradient-12);}.cls-30{fill:url(#linear-gradient-13);}.cls-31{fill:url(#linear-gradient-14);}.cls-32{fill:url(#linear-gradient-15);}.cls-33{fill:url(#linear-gradient-16);}.cls-34{fill:url(#linear-gradient-17);}.cls-35{fill:url(#linear-gradient-18);}.cls-36{fill:url(#linear-gradient-19);}.cls-37{fill:url(#linear-gradient-20);}.cls-38{fill:#632d1a;}.cls-39{fill:url(#radial-gradient-8);}.cls-40{opacity:0.4;fill:url(#radial-gradient-9);}.cls-41{fill:url(#radial-gradient-10);}.cls-42{fill:url(#radial-gradient-11);}.cls-43{fill:url(#radial-gradient-12);}.cls-44{fill:url(#radial-gradient-13);}.cls-45{fill:url(#radial-gradient-14);}.cls-46{fill:url(#radial-gradient-15);}.cls-47{fill:url(#radial-gradient-16);}.cls-48{fill:url(#radial-gradient-17);}.cls-49{fill:url(#radial-gradient-18);}.cls-50{fill:url(#radial-gradient-19);}.cls-51{fill:url(#radial-gradient-20);}.cls-52{fill:url(#radial-gradient-21);}.cls-53{fill:url(#radial-gradient-22);}.cls-54{fill:url(#radial-gradient-23);}.cls-55{fill:url(#radial-gradient-24);}.cls-56{fill:url(#radial-gradient-25);}.cls-57{fill:url(#radial-gradient-26);}.cls-58{fill:url(#radial-gradient-27);}</style><linearGradient id="linear-gradient" x1="16.99" y1="102.61" x2="81.66" y2="113.95" gradientUnits="userSpaceOnUse"><stop offset="0" stop-color="#8e5d3f"/><stop offset="1" stop-color="#552f1c"/></linearGradient><linearGradient id="linear-gradient-2" x1="0.53" y1="109.68" x2="126.09" y2="109.68" gradientUnits="userSpaceOnUse"><stop offset="0" stop-color="#3d150b"/><stop offset="1" stop-color="#340d07"/></linearGradient><radialGradient id="radial-gradient" cx="63.2" cy="112.58" r="46.44" gradientUnits="userSpaceOnUse"><stop offset="0.56" stop-color="#3d150b"/><stop offset="1" stop-color="#340d07"/></radialGradient><linearGradient id="linear-gradient-3" x1="108.56" y1="102.47" x2="108.73" y2="114.02" gradientUnits="userSpaceOnUse"><stop offset="0" stop-color="#3d140b"/><stop offset="0.48" stop-color="#40170e"/><stop offset="0.66" stop-color="#441a12"/><stop offset="1" stop-color="#64332f"/></linearGradient><linearGradient id="linear-gradient-4" x1="98.87" y1="101.77" x2="98.7" y2="113.66" xlink:href="#linear-gradient-3"/><linearGradient id="linear-gradient-5" x1="20.98" y1="102.66" x2="19.79" y2="113.88" xlink:href="#linear-gradient-3"/><linearGradient id="linear-gradient-6" x1="55.52" y1="108.47" x2="56.37" y2="124.95" xlink:href="#linear-gradient-3"/><linearGradient id="linear-gradient-7" x1="34.77" y1="99.08" x2="33.92" y2="105.88" xlink:href="#linear-gradient-3"/><radialGradient id="radial-gradient-2" cx="108.41" cy="76.75" r="5.71" gradientTransform="translate(5.82 8.33) scale(0.96)" xlink:href="#radial-gradient"/><radialGradient id="radial-gradient-3" cx="13.42" cy="76.75" r="5.71" gradientTransform="translate(5.82 8.33) scale(0.96)" xlink:href="#radial-gradient"/><linearGradient id="linear-gradient-8" x1="24.76" y1="64.58" x2="89.76" y2="75.58" xlink:href="#linear-gradient"/><linearGradient id="linear-gradient-9" x1="13.5" y1="74.22" x2="112.58" y2="74.22" xlink:href="#linear-gradient-2"/><radialGradient id="radial-gradient-4" cx="63.13" cy="76.51" r="36.64" xlink:href="#radial-gradient"/><radialGradient id="radial-gradient-5" cx="82.19" cy="28.53" r="5.71" gradientTransform="translate(29.66 28.73) scale(0.84)" xlink:href="#radial-gradient"/><radialGradient id="radial-gradient-6" cx="-2.58" cy="26.95" r="5.71" gradientTransform="translate(29.66 28.73) scale(0.84)" xlink:href="#radial-gradient"/><linearGradient id="linear-gradient-10" x1="33.75" y1="39.8" x2="77.08" y2="46.47" xlink:href="#linear-gradient"/><linearGradient id="linear-gradient-11" x1="26.95" y1="46.81" x2="99.54" y2="46.81" xlink:href="#linear-gradient-2"/><radialGradient id="radial-gradient-7" cx="63.18" cy="48.49" r="26.85" xlink:href="#radial-gradient"/><linearGradient id="linear-gradient-12" x1="58.43" y1="42.2" x2="59.62" y2="54.27" xlink:href="#linear-gradient-3"/><linearGradient id="linear-gradient-13" x1="28.21" y1="65.95" x2="25.5" y2="78.35" xlink:href="#linear-gradient-3"/><linearGradient id="linear-gradient-14" x1="35.38" y1="66.35" x2="33.17" y2="75.86" xlink:href="#linear-gradient-3"/><linearGradient id="linear-gradient-15" x1="97.02" y1="66.56" x2="95.67" y2="77.95" xlink:href="#linear-gradient-3"/><linearGradient id="linear-gradient-16" x1="69.25" y1="72.51" x2="68.4" y2="84.74" xlink:href="#linear-gradient-3"/><linearGradient id="linear-gradient-17" x1="85.28" y1="64.72" x2="86.81" y2="72.03" xlink:href="#linear-gradient-3"/><linearGradient id="linear-gradient-18" x1="89.52" y1="40.95" x2="89.69" y2="52.34" xlink:href="#linear-gradient-3"/><linearGradient id="linear-gradient-19" x1="37.4" y1="37.85" x2="40.46" y2="50.25" xlink:href="#linear-gradient-3"/><linearGradient id="linear-gradient-20" x1="83.66" y1="38.72" x2="84" y2="48.23" xlink:href="#linear-gradient-3"/><radialGradient id="radial-gradient-8" cx="-144" cy="-382.7" r="21.77" gradientTransform="translate(121.84 111.24) rotate(-8.72) scale(0.28)" gradientUnits="userSpaceOnUse"><stop offset="0.49" stop-color="#bf1f1f"/><stop offset="0.58" stop-color="#b91e1e"/><stop offset="0.7" stop-color="#a71b1b"/><stop offset="0.84" stop-color="#8a1517"/><stop offset="1" stop-color="#620e10"/><stop offset="1" stop-color="#610e10"/></radialGradient><radialGradient id="radial-gradient-9" cx="-144.12" cy="-387.82" r="18.3" gradientTransform="translate(121.84 111.24) rotate(-8.72) scale(0.28)" gradientUnits="userSpaceOnUse"><stop offset="0" stop-color="#ff5620"/><stop offset="1" stop-color="#d81b21"/></radialGradient><radialGradient id="radial-gradient-10" cx="16.33" cy="50.43" r="5.71" gradientTransform="translate(5.82 8.33) scale(0.96)" xlink:href="#radial-gradient"/><radialGradient id="radial-gradient-11" cx="102.98" cy="50.43" r="5.71" gradientTransform="translate(5.82 8.33) scale(0.96)" xlink:href="#radial-gradient"/><radialGradient id="radial-gradient-12" cx="26.46" cy="53.93" r="5.71" gradientTransform="translate(5.82 8.33) scale(0.96)" xlink:href="#radial-gradient"/><radialGradient id="radial-gradient-13" cx="94.27" cy="53" r="5.71" gradientTransform="translate(5.82 8.33) scale(0.96)" xlink:href="#radial-gradient"/><radialGradient id="radial-gradient-14" cx="38.85" cy="55.63" r="5.71" gradientTransform="translate(5.82 8.33) scale(0.96)" xlink:href="#radial-gradient"/><radialGradient id="radial-gradient-15" cx="81.94" cy="55.35" r="5.71" gradientTransform="translate(5.82 8.33) scale(0.96)" xlink:href="#radial-gradient"/><radialGradient id="radial-gradient-16" cx="52.98" cy="56.27" r="5.71" gradientTransform="translate(5.82 8.33) scale(0.96)" xlink:href="#radial-gradient"/><radialGradient id="radial-gradient-17" cx="67.38" cy="56.31" r="5.71" gradientTransform="translate(5.82 8.33) scale(0.96)" xlink:href="#radial-gradient"/><radialGradient id="radial-gradient-18" cx="3.28" cy="82.01" r="5.71" gradientTransform="translate(5.82 8.33) scale(0.96)" xlink:href="#radial-gradient"/><radialGradient id="radial-gradient-19" cx="118.08" cy="82.31" r="5.71" gradientTransform="translate(5.82 8.33) scale(0.96)" xlink:href="#radial-gradient"/><radialGradient id="radial-gradient-20" cx="110.66" cy="86.22" r="5.71" gradientTransform="translate(5.82 8.33) scale(0.96)" xlink:href="#radial-gradient"/><radialGradient id="radial-gradient-21" cx="10.88" cy="86.8" r="5.71" gradientTransform="translate(5.82 8.33) scale(0.96)" xlink:href="#radial-gradient"/><radialGradient id="radial-gradient-22" cx="99.79" cy="88.97" r="5.71" gradientTransform="translate(5.82 8.33) scale(0.96)" xlink:href="#radial-gradient"/><radialGradient id="radial-gradient-23" cx="23.43" cy="89.63" r="5.71" gradientTransform="translate(5.82 8.33) scale(0.96)" xlink:href="#radial-gradient"/><radialGradient id="radial-gradient-24" cx="85.4" cy="90.91" r="5.71" gradientTransform="translate(5.82 8.33) scale(0.96)" xlink:href="#radial-gradient"/><radialGradient id="radial-gradient-25" cx="37.68" cy="91.17" r="5.71" gradientTransform="translate(5.82 8.33) scale(0.96)" xlink:href="#radial-gradient"/><radialGradient id="radial-gradient-26" cx="69.4" cy="91.53" r="5.71" gradientTransform="translate(5.82 8.33) scale(0.96)" xlink:href="#radial-gradient"/><radialGradient id="radial-gradient-27" cx="53.01" cy="91.46" r="5.71" gradientTransform="translate(5.82 8.33) scale(0.96)" xlink:href="#radial-gradient"/></defs><g class="cls-1"><g id="Layer_1" data-name="Layer 1"><path class="cls-2" d="M124.46,128c0,7.25-28.63,15.85-62.47,15.85s-60-8.6-60-15.85c0-1.83-2.63-32.52-.69-39.26,3.73-8.23,36.27-4,60.78-4,25.43,0,58.64-6.24,63.14,4.45C127.15,93.86,124.46,126.38,124.46,128Z"/><g class="cls-3"><path class="cls-4" d="M123.36,116a1.39,1.39,0,0,0,1.33-1c.33-3.49.6-5.33.8-8,.13-1.77.29-3.54.36-5.31,0-.8.55-4.64,0-5.15s-1.23-.49-1.79-.89c-1.9-1.37-5.43-1.63-7.85-2.28-10-2.66-20.07-3.32-30.57-4.19-1.92-.16-3.83-.29-5.75-.39-6,.32-12.12.6-17.81.6-5.92,0-12.32-.22-18.66-.45q-9.06.52-18.09,1.46a81.45,81.45,0,0,0-13,2.49c-2.56.7-9,1.68-10.59,3.37A5.25,5.25,0,0,0,.56,98.32,83.21,83.21,0,0,0,1,109.48c.17,1.56-.06,3.49.41,5s1.91,1.28,2.53,0c.75-1.61.73-4.45.69-6.2,0-.88-.61-5,.76-5.19,1-.17,1.75,3.24,2.75,3.77,1.63.85,3.55.83,5.16,1.83,3.06,1.92,3.06,13.8,8.8,9.77,1.9-1.32,2.12-3.54,2.72-5.6.46-1.55,1-3.54,3-2.93,1.21.36,1.71,1.6,2.69,2.25,3.39,2.23,6.93-1,8.89-3.49.8-1,1.44-2.44,2.93-2.45,3,0,4.23,3,5.47,5.19a18.17,18.17,0,0,1,2,8.76c.08,3,.32,6.85,2.88,8.89,2.25,1.79,6.79,2.39,8.77-.12,2.47-3.12,1.17-8.49,1.2-12.16,0-1.46-.31-3.23,1.36-4,1.46-.63,2.83.44,3.49,1.72.49,1,.57,2.24,1.81,2.55,4.12,1,4.2-12,9.26-8.36,1.78,1.25,2.66,1.94,4.73.64,1.69-1.08,3.12-2.89,5.18-3.27,5.74-1.06,3.16,9.9,8.34,10.22,2.42.14,4.42-3.81,6.28-1.23,1.43,2,2.1,4.91,4.18,6.35a7.4,7.4,0,0,0,6.44.74c3.92-1.41,3.17-5.83,2.45-9-.38-1.67-1-3.61-.84-5.33.3-3,1.88-.94,3.3-.26,2.06,1,2.77-.92,3.49-2.4.89-1.82,1.68-.35,1.49,1.18-.25,2-1.51,3.61-1.64,5.69C121.92,113.08,121.71,115.69,123.36,116Z"/></g><path class="cls-5" d="M126.5,86.12c1.48,3.59.27,8.64-.16,12.35-.37,3.16-1.21,6.52-.26,9.62.36,1.15,1.58,3,.78,4.22a1.91,1.91,0,0,1-3,.08c-1.89-2,1.92-12.18-1.21-12.23-1.6,0-1.19,1.83-1.32,2.79s-.3,2.77-1.71,2.81-1.28-1.61-1.7-2.61c-1.78-4.28-2.88.69-2.94,2.82-.09,3.4,1.29,7.57,0,10.79s-4,4.39-7,2.6a7,7,0,0,1-2.85-3.47c-.47-1.15-.71-3.52-1.91-4.22-1.54-.92-3,.55-4.4,1.11-6,2.4-4.53-4.06-5-7.52s-3.36-4.23-6.2-2.89c-3,1.43-4.65,5.81-8.66,4.87-1.34-.31-2.66-1.87-4.19-1.44-3,.84-1.09,6.44-4.9,6.49-2.89,0-4.2-8.46-7.11-3.4-1.2,2.07-.42,4.82-.26,7,.2,2.82.34,6.31-.83,8.95-2.28,5.14-8.06,3.33-10.54-.54-3.1-4.83,1-11.83-2.93-16.64-1.84-2.25-4-5.16-7.31-4.39-2.36.55-3.7,2.84-5.83,3.83-2.83,1.3-4.59-.52-7.27-.35-1.81.12-3,2.12-3.29,3.62-.6,2.73-1.6,8.55-6,5.63-3.33-2.19-.71-8.42-4.35-10.31-1.63-.84-3.75.65-5.29-.67s-.74-3.9-2.38-5c-3.31-2.28-3.24,4.8-3.28,6.42s.22,10.49-3.34,6.76c-1.31-1.36-.4-3.26.09-4.74,2.23-6.7-2.26-17.86,1.5-23.27C3,82.93,9.45,81.61,12,80.67a63.73,63.73,0,0,1,13-3.35,270.74,270.74,0,0,1,37.4-2.73,207.68,207.68,0,0,1,23.26,1.08c10.55,1.17,20.69,2.06,30.74,5.65,2.43.87,6,1.22,7.9,3.07C125.06,85.06,126,85,126.5,86.12Z"/><path class="cls-6" d="M125.32,110.63a2.51,2.51,0,0,1-1.24-1.23,7.85,7.85,0,0,1,.22-3.6c.32-2,1.31-5.63-.5-7.11-3.29-2.68-2.49,5-4.23,4.09-1.5-.79-2.62-5.91-4.73-2.24-1.46,2.55-1.14,5.92-.87,8.7.2,2.14.18,5.85-2.26,6.82a5.16,5.16,0,0,1-4.45-.67c-2.15-1.65-1.81-4.51-2.72-6.76-1.38-3.44-3,2.08-5,2.57-3,.73-3.54-2.5-4.14-4.48-.82-2.71-3.3-8.92-7.14-7.75S82.78,108.21,78,104.9c-2.3-1.58-4.2-1.49-5.49,1.21-.68,1.41-2.17,5.84-4.41,3.51-1.48-1.54-.34-4.92-2.06-6.19-5-3.66-4.32,11.78-4.37,13-.09,2.15-.3,5.44-2.64,6.4-3.41,1.41-6.18-1.8-6.91-4.69a124.14,124.14,0,0,1-2.51-13.08,6.42,6.42,0,0,0-2.54-4.52c-2.6-2-5.83-.21-7.71,1.88s-3.49,4-6.43,4c-2.16,0-3.61-1.76-4.47-3.46-.5-1-.77-2.07-2-1.39-.89.51-1.39,2.09-1.71,3-.74,2.08-.84,4.86-2.05,6.74-1.72,2.66-4.67,2.22-5.51-.82-.44-1.6-.13-3.36-.61-4.92-1.12-3.67-5.09.28-7-1.68-1-1.08-1-2.86-1.5-4.2s-1.58-2.93-3.23-2.52C1.6,98,3.22,107,2.53,109.26a10.6,10.6,0,0,1-1.08,3c-.28.33-1.72,1.07-2.08.39a2.64,2.64,0,0,0,.41.58c3.56,3.73,3.3-5.1,3.34-6.76s0-8.7,3.28-6.42c1.64,1.13.94,3.79,2.38,5s3.66-.17,5.29.67c3.64,1.89,1,8.12,4.35,10.31,4.44,2.92,5.44-2.9,6-5.63.33-1.5,1.48-3.5,3.29-3.62,2.68-.17,4.44,1.65,7.27.35,2.13-1,3.47-3.28,5.83-3.83,3.31-.77,5.47,2.14,7.31,4.39,3.94,4.81-.17,11.81,2.93,16.64,2.48,3.87,8.26,5.68,10.54.54,1.17-2.64,1-6.13.83-8.95-.16-2.22-.94-5,.26-7,2.91-5.06,4.22,3.44,7.11,3.4,3.81-.05,1.91-5.65,4.9-6.49,1.53-.43,2.85,1.13,4.19,1.44,4,.94,5.63-3.44,8.66-4.87,2.84-1.34,5.69-.48,6.2,2.89.54,3.62-1,9.91,5,7.52,1.4-.56,2.86-2,4.4-1.11,1.2.7,1.44,3.07,1.91,4.22a7,7,0,0,0,2.85,3.47c2.93,1.79,5.69.48,7-2.6s0-7.39,0-10.79c.06-2.13,1.16-7.1,2.94-2.82.42,1,.26,2.65,1.7,2.61s1.58-1.85,1.71-2.81-.28-2.82,1.32-2.79c3.13,0-.67,9.56,1,12.14.59.93,3,1.33,3.38-.14C127.08,111.53,126.15,111.13,125.32,110.63Z"/><path class="cls-7" d="M126.69,87.05c0,6.61-29.45,10.86-64.25,10.86S.68,93.66.68,87.05,27.65,74,62.44,74,126.69,80.45,126.69,87.05Z"/><g class="cls-8"><path class="cls-9" d="M72.06,94.82c-33.76-.09-59.91-4-59.89-9.95,0-2.75,5.56-5.44,14.82-7.55C11.81,79.53,2.11,83.08,2.1,86.7c0,6,26.13,9.87,59.89,10,21.81.06,41.44-1.5,52.63-4.21A320.59,320.59,0,0,1,72.06,94.82Z"/></g><path class="cls-10" d="M111,115.66c3-.75,2.9-5.42,2.82-7.15-.38-8.32-1.59-3.69-4.22-4s-5-3.75-6.19-5.42C104.75,102.94,103.71,117.45,111,115.66Z"/><path class="cls-11" d="M99.34,111.24c2-.41,3.59-4.51,5.21-5.69,4.43-3.26-4-1.68-5.75-2s-6.14-2.73-6.89-3.88C96.48,104.36,94.9,112.12,99.34,111.24Z"/><path class="cls-12" d="M19.15,112.65c-2.15-.53-2-3.84-2-5.07.27-5.9,1.13-2.61,3-2.83s3.5-2.66,4.39-3.84C23.55,103.63,24.3,113.92,19.15,112.65Z"/><path class="cls-13" d="M58.3,123c3.46-.6,3.29-5.8,3.21-7.71-.43-9.26-1.81-4.22-4.81-4.76-2.84-.51-5.62-4.53-7-6.48C51.24,108.41,50.05,124.43,58.3,123Z"/><path class="cls-14" d="M41.67,100c-3.51,1.89-4.29,5.62-7.26,6.14-3.95.68-5.73-2.63-6.69-6.74Z"/><path class="cls-15" d="M102.52,80.36c-1.87,1.61,2.69,1.79,3.78,2.24.49.51,1.63.85,4,.7,0,0,0,0,0-.06,1-.75,8.92-.58,6.55-2.8Z"/><path class="cls-16" d="M112.45,75.15c1,1.73-1.5,5.66-4.15,7.37,2.14.44,2.17-.38,3.08-.47C119.79,81.16,115.42,76.72,112.45,75.15Z"/><path class="cls-17" d="M103.35,80.63c-1.48-.17-.75-2,.69-2.77,2.07-1,8.14-2.66,4.16-4.63C115.63,73.51,109,81.27,103.35,80.63Z"/><path class="cls-16" d="M103.35,80.63c-.63-.07-.86-.45-.8-.92.07-.64-.08.44,2-.36,3.33-1.3,8.94-4.06,3.65-6.12C115.63,73.51,109,81.27,103.35,80.63Z"/><path class="cls-18" d="M102.55,79.71c.08.52.54,1,2.57,0,4.4-2,8.84-5.19,3.08-6.52,6.85.26,3.59,8.39-1.66,8.89C105.72,81.45,102,82,102.55,79.71Z"/><path class="cls-19" d="M106.18,81.09a4.74,4.74,0,0,1-2.12,0,4.16,4.16,0,0,1-1.52-.66c.38,1.43,3.28,1.08,4,1.66a6.54,6.54,0,0,0,.75-.13A2.32,2.32,0,0,1,106.18,81.09Z"/><path class="cls-17" d="M106.24,81.88c-1.15-1.28-.3-2.42,1.14-3.15,2.07-1,7.15-4.16.82-5.5C117.71,74.16,107.69,81.45,106.24,81.88Z"/><path class="cls-16" d="M110.3,82.69c-6.33.41-3.92-2.77-3.57-3,4.2-2.13,8.55-5.49,1.47-6.51,7.32.37,4.79,7.19.08,8.17C107.77,81.51,107.74,81.57,110.3,82.69Z"/><path class="cls-18" d="M110.3,82.69c-4.61.13-2.81-1.4-1.83-1.88,4.72-2.34,4.29-4.73,3.63-6.14C115.67,80.34,108.68,80.21,110.3,82.69Z"/><path class="cls-18" d="M112.45,75.15c8.7,5.38-3,5.93-2.26,7.54.82-.93,7.71.25,6.77-3.49C116.51,77.44,112.93,75.4,112.45,75.15Z"/><path class="cls-17" d="M112.43,75.16c4.28,3.64-2.24,5.94-2.26,7.32C111.71,80.41,119.82,79.41,112.43,75.16Z"/><path class="cls-16" d="M104,77.86c2.07-1,8.41-2.52,4.16-4.63C109.18,74.87,107.07,76.19,104,77.86Z"/><path class="cls-19" d="M110.34,80.76c3.82-2.43,2.42-4.68,1.76-6.09,3.13,5-1.84,5.48-2,7.19C110,82.11,109.4,81.36,110.34,80.76Z"/><path class="cls-19" d="M110.57,82c-.32.2-.48.41-.38.65.72-.81,6.06,0,6.78-2.29C115.74,81.73,112.31,81.74,110.57,82Z"/><path class="cls-20" d="M11.53,80.36C9.66,82,14.22,82.15,15.31,82.6c.49.51,1.64.85,4,.7l0-.06c1-.75,8.92-.58,6.56-2.8Z"/><path class="cls-16" d="M21.46,75.15c.95,1.73-1.5,5.66-4.15,7.37,2.14.44,2.17-.38,3.08-.47C28.8,81.16,24.43,76.72,21.46,75.15Z"/><path class="cls-17" d="M12.36,80.63c-1.48-.17-.75-2,.69-2.77,2.08-1,8.14-2.66,4.16-4.63C24.64,73.51,18,81.27,12.36,80.63Z"/><path class="cls-16" d="M12.36,80.63c-.63-.07-.86-.45-.8-.92.08-.64-.07.44,2-.36,3.33-1.3,8.94-4.06,3.65-6.12C24.64,73.51,18,81.27,12.36,80.63Z"/><path class="cls-18" d="M11.56,79.71c.08.52.54,1,2.57,0,4.4-2,8.84-5.19,3.08-6.52,6.86.26,3.59,8.39-1.66,8.89C14.73,81.45,11,82,11.56,79.71Z"/><path class="cls-19" d="M15.19,81.09a4.69,4.69,0,0,1-2.11,0,4.14,4.14,0,0,1-1.53-.66c.38,1.43,3.28,1.08,4,1.66A6.54,6.54,0,0,0,16.3,82,2.32,2.32,0,0,1,15.19,81.09Z"/><path class="cls-17" d="M15.25,81.88c-1.15-1.28-.3-2.42,1.14-3.15,2.07-1,7.15-4.16.82-5.5C26.72,74.16,16.7,81.45,15.25,81.88Z"/><path class="cls-16" d="M19.31,82.69c-6.33.41-3.92-2.77-3.57-3,4.2-2.13,8.55-5.49,1.47-6.51,7.32.37,4.79,7.19.08,8.17C16.78,81.51,16.75,81.57,19.31,82.69Z"/><path class="cls-18" d="M19.31,82.69c-4.61.13-2.81-1.4-1.83-1.88,4.72-2.34,4.3-4.73,3.63-6.14C24.69,80.34,17.69,80.21,19.31,82.69Z"/><path class="cls-18" d="M21.46,75.15c8.7,5.38-3,5.93-2.26,7.54.83-.93,7.71.25,6.77-3.49C25.52,77.44,21.94,75.4,21.46,75.15Z"/><path class="cls-17" d="M21.44,75.16c4.28,3.64-2.24,5.94-2.26,7.32C20.72,80.41,28.83,79.41,21.44,75.16Z"/><path class="cls-16" d="M13.05,77.86c2.08-1,8.41-2.52,4.16-4.63C18.19,74.87,16.08,76.19,13.05,77.86Z"/><path class="cls-19" d="M19.36,80.76c3.81-2.43,2.42-4.68,1.75-6.09,3.13,5-1.84,5.48-2,7.19C19,82.11,18.41,81.36,19.36,80.76Z"/><path class="cls-19" d="M19.58,82c-.32.2-.48.41-.38.65.72-.81,6.06,0,6.78-2.29C24.75,81.73,21.32,81.74,19.58,82Z"/><path class="cls-21" d="M14.79,80.68c0,5.72,22.59,12.51,49.29,12.51s47.38-6.79,47.38-12.51c0-1.44,2.08-18,.55-23.27-3-6.49-28.63-3.17-48-3.17-20.06,0-46.27-4.93-49.82,3.51C12.67,61.46,14.79,79.4,14.79,80.68Z"/><g class="cls-3"><path class="cls-22" d="M15.66,79.18a1.1,1.1,0,0,1-1.05-.77c-.26-2.76-.47-4.2-.63-6.31-.11-1.39-.23-2.79-.29-4.19,0-.63-.43-3.66,0-4.06s1-.39,1.41-.7c1.51-1.09,4.29-1.3,6.2-1.8,7.88-2.1,15.84-2.62,24.12-3.31,1.51-.13,3-.23,4.53-.31,4.78.25,9.57.47,14.06.47,4.67,0,9.72-.17,14.72-.35q7.16.4,14.28,1.15a64.22,64.22,0,0,1,10.23,2c2,.55,7.12,1.32,8.35,2.65a4.11,4.11,0,0,1,.92,1.64,64.71,64.71,0,0,1-.37,8.8,22.29,22.29,0,0,1-.32,3.94c-.4,1.29-1.52,1-2,0a12.76,12.76,0,0,1-.55-4.89c0-.69.49-3.92-.6-4.1-.77-.13-1.38,2.56-2.17,3-1.28.67-2.8.65-4.06,1.44-2.42,1.52-2.42,10.89-7,7.72-1.5-1-1.67-2.8-2.15-4.42-.36-1.23-.78-2.8-2.39-2.32-.95.28-1.34,1.26-2.12,1.77-2.67,1.77-5.47-.74-7-2.75-.64-.82-1.14-1.92-2.31-1.93-2.36,0-3.34,2.38-4.32,4.09a14.38,14.38,0,0,0-1.54,6.92c-.06,2.39-.25,5.4-2.27,7-1.78,1.41-5.36,1.88-6.92-.09-2-2.46-.92-6.7-1-9.59,0-1.16.25-2.56-1.07-3.13A2.21,2.21,0,0,0,59.73,78c-.39.77-.45,1.76-1.43,2C55,80.85,55,70.61,51,73.44c-1.4,1-2.1,1.53-3.73.5-1.34-.84-2.46-2.27-4.09-2.58-4.53-.83-2.49,7.82-6.58,8.07-1.9.11-3.48-3-5-1-1.13,1.56-1.65,3.88-3.29,5a5.91,5.91,0,0,1-5.08.59c-3.09-1.12-2.51-4.6-1.94-7.1A13.52,13.52,0,0,0,22,72.75c-.24-2.36-1.49-.74-2.6-.2-1.64.78-2.19-.73-2.76-1.89-.7-1.44-1.33-.28-1.18.93.2,1.55,1.19,2.84,1.3,4.48C16.8,76.91,17,79,15.66,79.18Z"/></g><path class="cls-5" d="M13.18,55.64c-1.17,2.82-.21,6.81.13,9.74.29,2.49.95,5.14.2,7.59-.28.91-1.25,2.36-.61,3.33a1.51,1.51,0,0,0,2.36.06c1.49-1.54-1.52-9.61,1-9.65,1.27,0,.94,1.44,1,2.2s.24,2.19,1.35,2.22,1-1.27,1.34-2.06c1.4-3.38,2.27.55,2.32,2.22.07,2.69-1,6,0,8.52s3.18,3.46,5.49,2A5.5,5.5,0,0,0,30,79.12c.37-.91.56-2.77,1.51-3.33,1.22-.72,2.37.44,3.47.88,4.76,1.89,3.57-3.21,4-5.94s2.65-3.34,4.89-2.28S47.56,73,50.72,72.3c1.06-.25,2.1-1.48,3.31-1.14,2.36.66.85,5.08,3.86,5.12,2.28,0,3.32-6.68,5.62-2.68.94,1.63.32,3.8.2,5.55-.16,2.23-.27,5,.65,7.06,1.8,4.06,6.36,2.63,8.32-.42C75.12,82,71.89,76.46,75,72.66c1.45-1.78,3.16-4.07,5.77-3.46,1.86.43,2.92,2.24,4.6,3,2.23,1,3.62-.41,5.74-.27,1.42.09,2.33,1.67,2.59,2.86.48,2.15,1.27,6.75,4.77,4.44,2.63-1.73.56-6.65,3.43-8.13,1.28-.67,3,.51,4.18-.54s.58-3.07,1.87-4c2.61-1.8,2.56,3.78,2.59,5.06S110.35,80,113.17,77c1-1.08.31-2.57-.08-3.74-1.75-5.29,1.79-14.09-1.18-18.36-1.25-1.79-6.38-2.84-8.4-3.57a49.57,49.57,0,0,0-10.29-2.65,214.37,214.37,0,0,0-29.51-2.15,165.26,165.26,0,0,0-18.35.84C37,48.31,29,49,21.1,51.84c-1.92.69-4.72,1-6.23,2.43C14.32,54.8,13.55,54.75,13.18,55.64Z"/><path class="cls-23" d="M14.12,75a1.94,1.94,0,0,0,1-1,6.21,6.21,0,0,0-.18-2.84c-.25-1.55-1-4.44.4-5.61,2.6-2.12,2,4,3.34,3.23,1.18-.62,2.07-4.66,3.73-1.77,1.15,2,.9,4.67.69,6.86-.16,1.69-.15,4.62,1.78,5.38a4.08,4.08,0,0,0,3.51-.52c1.7-1.3,1.43-3.56,2.15-5.34,1.09-2.71,2.36,1.64,4,2,2.4.58,2.8-2,3.27-3.53.65-2.14,2.6-7,5.64-6.12s4.29,7.29,8.06,4.68c1.81-1.25,3.31-1.18,4.33,1,.53,1.11,1.71,4.6,3.48,2.77,1.17-1.22.27-3.89,1.63-4.89,3.91-2.89,3.4,9.3,3.44,10.26.07,1.7.24,4.29,2.08,5,2.7,1.12,4.88-1.41,5.46-3.7a98.09,98.09,0,0,0,2-10.31,5.13,5.13,0,0,1,2-3.57c2.06-1.58,4.6-.17,6.08,1.48s2.76,3.13,5.08,3.17c1.7,0,2.85-1.38,3.53-2.72.39-.79.61-1.64,1.55-1.1.7.4,1.1,1.64,1.35,2.35.58,1.64.67,3.83,1.62,5.31,1.35,2.11,3.68,1.75,4.34-.64.35-1.26.11-2.65.49-3.88.88-2.9,4,.22,5.49-1.33.81-.85.79-2.26,1.18-3.31s1.24-2.31,2.55-2c2.62.64,1.34,7.71,1.89,9.53a8,8,0,0,0,.85,2.35c.22.26,1.36.85,1.64.31a2.51,2.51,0,0,1-.32.46c-2.82,2.94-2.61-4-2.64-5.34s0-6.86-2.59-5.06c-1.29.89-.74,3-1.87,4s-2.9-.13-4.18.54c-2.87,1.48-.8,6.4-3.43,8.13C95,81.55,94.17,77,93.69,74.8c-.26-1.19-1.17-2.77-2.59-2.86-2.12-.14-3.51,1.3-5.74.27-1.68-.77-2.74-2.58-4.6-3-2.61-.61-4.32,1.68-5.77,3.46-3.1,3.8.13,9.32-2.31,13.13-2,3-6.52,4.48-8.32.42-.92-2.08-.81-4.83-.65-7.06.12-1.75.74-3.92-.2-5.55-2.3-4-3.34,2.71-5.62,2.68-3,0-1.5-4.46-3.86-5.12-1.21-.34-2.25.89-3.31,1.14-3.16.74-4.44-2.72-6.83-3.85S39.4,68.08,39,70.73c-.43,2.86.75,7.82-4,5.94-1.1-.44-2.25-1.6-3.47-.88-.95.56-1.14,2.42-1.51,3.33a5.5,5.5,0,0,1-2.25,2.74c-2.31,1.41-4.49.38-5.49-2s0-5.83,0-8.52c-.05-1.67-.92-5.6-2.32-2.22-.32.79-.2,2.09-1.34,2.06s-1.24-1.46-1.35-2.22.23-2.22-1-2.2c-2.47,0,.53,7.54-.78,9.58-.47.73-2.38,1-2.66-.11C12.73,75.68,13.46,75.36,14.12,75Z"/><path class="cls-7" d="M13,56.37c0,5.21,23.24,8.56,50.69,8.56s48.74-3.35,48.74-8.56S91.18,46.06,63.72,46.06,13,51.15,13,56.37Z"/><g class="cls-8"><path class="cls-9" d="M69.71,62.49c-26.64-.06-47.27-3.14-47.26-7.85,0-2.16,4.39-4.29,11.7-6-12,1.74-19.63,4.54-19.64,7.4,0,4.7,20.62,7.78,47.25,7.85,17.21.05,32.7-1.18,41.53-3.32A251.84,251.84,0,0,1,69.71,62.49Z"/></g><path class="cls-24" d="M92.74,51.5c-1.64,1.42,2.38,1.58,3.34,2,.43.44,1.44.75,3.52.61l0-.05c.9-.66,7.86-.51,5.78-2.46Z"/><path class="cls-16" d="M101.5,46.92c.83,1.52-1.32,5-3.66,6.49,1.88.39,1.91-.33,2.72-.42C108,52.21,104.11,48.29,101.5,46.92Z"/><path class="cls-17" d="M93.48,51.74c-1.3-.14-.66-1.8.61-2.44,1.83-.91,7.17-2.34,3.67-4.08C104.3,45.47,98.44,52.31,93.48,51.74Z"/><path class="cls-16" d="M93.48,51.74c-.56-.06-.76-.4-.71-.81s-.06.39,1.77-.32c2.93-1.14,7.87-3.58,3.22-5.39C104.3,45.47,98.44,52.31,93.48,51.74Z"/><path class="cls-18" d="M92.77,50.93c.07.46.48.85,2.27,0,3.87-1.76,7.79-4.58,2.72-5.75,6,.23,3.16,7.39-1.47,7.83C95.56,52.47,92.31,53,92.77,50.93Z"/><path class="cls-19" d="M96,52.15a4.17,4.17,0,0,1-1.86,0,3.53,3.53,0,0,1-1.34-.58c.33,1.26,2.89.95,3.52,1.46a5,5,0,0,0,.66-.11A2,2,0,0,1,96,52.15Z"/><path class="cls-17" d="M96,52.84c-1-1.13-.27-2.13,1-2.77,1.83-.91,6.3-3.67.73-4.85C106.14,46,97.3,52.46,96,52.84Z"/><path class="cls-16" d="M99.6,53.55c-5.57.37-3.45-2.44-3.14-2.59,3.7-1.88,7.53-4.84,1.3-5.74,6.45.33,4.22,6.34.06,7.2C97.37,52.52,97.35,52.57,99.6,53.55Z"/><path class="cls-18" d="M99.6,53.55c-4.06.13-2.47-1.22-1.61-1.65,4.16-2.06,3.79-4.17,3.2-5.41C104.34,51.49,98.18,51.37,99.6,53.55Z"/><path class="cls-18" d="M101.5,46.92c7.66,4.74-2.61,5.22-2,6.64.73-.82,6.8.21,6-3.08C105.08,48.93,101.92,47.13,101.5,46.92Z"/><path class="cls-17" d="M101.48,46.92c3.77,3.21-2,5.24-2,6.45C100.85,51.55,108,50.67,101.48,46.92Z"/><path class="cls-16" d="M94.09,49.3c1.83-.91,7.41-2.22,3.67-4.08C98.62,46.66,96.76,47.83,94.09,49.3Z"/><path class="cls-19" d="M99.64,51.86c3.37-2.15,2.14-4.13,1.55-5.37,2.76,4.37-1.62,4.83-1.8,6.34C99.36,53,98.81,52.39,99.64,51.86Z"/><path class="cls-19" d="M99.84,53c-.28.18-.42.37-.34.58.64-.71,5.35,0,6-2C104.39,52.71,101.37,52.72,99.84,53Z"/><path class="cls-25" d="M21.19,50.17c-1.65,1.42,2.37,1.57,3.33,2,.43.44,1.44.75,3.52.61l0,0c.9-.66,7.86-.51,5.78-2.46Z"/><path class="cls-16" d="M29.94,45.58c.83,1.52-1.32,5-3.66,6.49,1.89.39,1.91-.33,2.72-.41C36.41,50.87,32.56,47,29.94,45.58Z"/><path class="cls-17" d="M21.92,50.41c-1.3-.15-.66-1.8.61-2.44,1.83-.91,7.17-2.35,3.67-4.08C32.75,44.14,26.88,51,21.92,50.41Z"/><path class="cls-16" d="M21.92,50.41a.69.69,0,0,1-.71-.82c.07-.55-.06.4,1.77-.31,2.93-1.14,7.88-3.58,3.22-5.39C32.75,44.14,26.88,51,21.92,50.41Z"/><path class="cls-18" d="M21.21,49.59c.08.46.48.86,2.27,0,3.87-1.77,7.79-4.58,2.72-5.75,6,.23,3.16,7.39-1.47,7.83C24,51.13,20.75,51.63,21.21,49.59Z"/><path class="cls-19" d="M24.42,50.82a4.21,4.21,0,0,1-1.87,0,3.69,3.69,0,0,1-1.34-.58c.33,1.26,2.89,1,3.52,1.46a5,5,0,0,0,.66-.11A2,2,0,0,1,24.42,50.82Z"/><path class="cls-17" d="M24.47,51.51c-1-1.13-.27-2.14,1-2.77,1.83-.91,6.3-3.67.73-4.85C34.58,44.71,25.74,51.13,24.47,51.51Z"/><path class="cls-16" d="M28,52.22c-5.57.37-3.45-2.44-3.14-2.6,3.7-1.87,7.53-4.84,1.3-5.73,6.45.33,4.22,6.34.06,7.2C25.82,51.19,25.79,51.24,28,52.22Z"/><path class="cls-18" d="M28,52.22c-4.06.12-2.47-1.23-1.61-1.65,4.16-2.07,3.79-4.17,3.2-5.42C32.78,50.16,26.62,50,28,52.22Z"/><path class="cls-18" d="M29.94,45.58c7.67,4.74-2.61,5.22-2,6.64.73-.81,6.8.22,6-3.07C33.52,47.6,30.36,45.8,29.94,45.58Z"/><path class="cls-17" d="M29.92,45.59c3.77,3.21-2,5.24-2,6.45C29.29,50.21,36.43,49.33,29.92,45.59Z"/><path class="cls-16" d="M22.53,48c1.83-.91,7.41-2.22,3.67-4.08C27.06,45.33,25.2,46.49,22.53,48Z"/><path class="cls-19" d="M28.08,50.52c3.37-2.14,2.14-4.12,1.55-5.37C32.39,49.53,28,50,27.83,51.5,27.81,51.71,27.25,51.06,28.08,50.52Z"/><path class="cls-19" d="M28.28,51.65c-.28.18-.42.37-.33.57.63-.71,5.34,0,6-2C32.84,51.38,29.82,51.39,28.28,51.65Z"/><path class="cls-26" d="M98.6,51.55c0,4.18-16.56,8.18-36.12,8.18s-34.89-2.87-34.89-7.06c0-1.06-1.34-14.27-.22-18.17,2.15-4.76,21-2.33,35.14-2.33,14.7,0,33.9-3.61,36.5,2.57C100.15,37.46,98.6,50.61,98.6,51.55Z"/><g class="cls-3"><path class="cls-27" d="M98,50.45a.81.81,0,0,0,.77-.57c.19-2,.35-3.08.46-4.62.08-1,.17-2,.21-3.07,0-.47.32-2.68,0-3s-.71-.28-1-.51c-1.1-.79-3.14-1-4.54-1.32C88,35.84,82.19,35.46,76.13,35c-1.11-.1-2.22-.17-3.33-.23-3.5.19-7,.35-10.29.35s-7.13-.13-10.79-.26q-5.23.3-10.46.84a47.56,47.56,0,0,0-7.5,1.44c-1.48.4-5.21,1-6.12,1.95a3,3,0,0,0-.67,1.2,47.78,47.78,0,0,0,.27,6.44,16.18,16.18,0,0,0,.24,2.89c.29,1,1.1.74,1.46,0a9.37,9.37,0,0,0,.4-3.58c0-.51-.35-2.87.44-3,.57-.1,1,1.87,1.59,2.18.94.49,2.05.48,3,1.06,1.77,1.11,1.77,8,5.09,5.65,1.1-.77,1.23-2,1.57-3.24.27-.9.58-2,1.75-1.7.7.21,1,.93,1.56,1.3,2,1.3,4-.55,5.14-2,.46-.61.83-1.41,1.69-1.42,1.73,0,2.45,1.74,3.16,3a10.44,10.44,0,0,1,1.13,5.07c.05,1.75.19,4,1.67,5.13,1.3,1,3.92,1.38,5.07-.06,1.42-1.81.67-4.92.69-7,0-.85-.18-1.87.79-2.29a1.62,1.62,0,0,1,2,1c.29.57.33,1.29,1,1.47,2.38.6,2.43-6.9,5.35-4.83,1,.73,1.54,1.12,2.74.37,1-.62,1.8-1.67,3-1.89,3.31-.61,1.82,5.73,4.81,5.91,1.4.08,2.56-2.2,3.64-.71.82,1.14,1.21,2.84,2.41,3.67a4.32,4.32,0,0,0,3.72.43c2.27-.82,1.84-3.37,1.42-5.2a10.22,10.22,0,0,1-.49-3.08c.18-1.73,1.09-.55,1.91-.15,1.2.57,1.6-.54,2-1.39.51-1.05,1-.2.86.68C98,46,97.24,47,97.17,48.17,97.13,48.78,97,50.29,98,50.45Z"/></g><path class="cls-5" d="M99.77,33.19c.86,2.08.16,5-.09,7.14-.21,1.83-.7,3.77-.14,5.56.2.67.91,1.73.44,2.44a1.1,1.1,0,0,1-1.72.05c-1.1-1.13,1.11-7-.7-7.07-.93,0-.69,1.06-.77,1.61s-.17,1.61-1,1.63-.75-.93-1-1.51c-1-2.48-1.66.4-1.69,1.63-.06,2,.74,4.37,0,6.24s-2.34,2.53-4,1.5a4.07,4.07,0,0,1-1.65-2c-.27-.66-.41-2-1.1-2.44-.89-.53-1.74.32-2.54.64-3.49,1.39-2.62-2.34-2.92-4.34s-1.94-2.45-3.58-1.68-2.69,3.37-5,2.82c-.78-.18-1.54-1.08-2.42-.83-1.73.48-.63,3.72-2.83,3.75-1.67,0-2.43-4.89-4.12-2-.69,1.2-.24,2.78-.15,4.07a11.42,11.42,0,0,1-.47,5.17c-1.32,3-4.67,1.92-6.1-.31-1.79-2.79.58-6.84-1.69-9.62-1.07-1.3-2.32-3-4.23-2.54-1.36.32-2.14,1.64-3.37,2.21-1.63.76-2.65-.3-4.2-.2-1,.07-1.71,1.23-1.9,2.09-.35,1.58-.93,5-3.5,3.26-1.92-1.27-.4-4.87-2.51-6-.94-.49-2.17.38-3.06-.39s-.43-2.25-1.38-2.91C28.43,39.91,28.47,44,28.45,45s.13,6.06-1.93,3.91c-.76-.79-.23-1.89.05-2.75,1.29-3.87-1.31-10.32.87-13.45.91-1.31,4.67-2.08,6.16-2.62a37.53,37.53,0,0,1,7.53-1.94,158.26,158.26,0,0,1,21.63-1.57,120.68,120.68,0,0,1,13.44.62c6.1.68,12,1.19,17.77,3.27,1.41.5,3.46.71,4.57,1.77C98.94,32.58,99.51,32.55,99.77,33.19Z"/><path class="cls-28" d="M99.09,47.36a1.44,1.44,0,0,1-.71-.71,4.58,4.58,0,0,1,.13-2.08c.18-1.13.76-3.26-.29-4.11-1.91-1.55-1.45,2.89-2.45,2.36S94.26,39.41,93,41.53c-.85,1.47-.66,3.42-.51,5,.12,1.23.11,3.38-1.3,3.94a3,3,0,0,1-2.58-.39c-1.24-1-1-2.6-1.57-3.91-.79-2-2,1.29-3.13,1.58-1.76.42-1.83-1.53-2.18-2.68-.47-1.56-1.9-5.15-4.12-4.48S74.5,46,71.74,44.05c-1.33-.92-2.43-.86-3.18.7-.39.81-1.25,3.37-2.54,2-.86-.89-.2-2.85-1.2-3.58C62,41.08,62.33,50,62.3,50.72c0,1.25-.18,3.14-1.53,3.7-2,.81-3.57-1-4-2.71a69.5,69.5,0,0,1-1.45-7.56,3.73,3.73,0,0,0-1.47-2.61c-1.51-1.16-3.37-.13-4.46,1.08s-2,2.29-3.72,2.33a3.08,3.08,0,0,1-2.58-2c-.29-.57-.45-1.2-1.14-.81-.51.3-.8,1.21-1,1.72-.42,1.21-.49,2.82-1.18,3.9-1,1.54-2.7,1.28-3.19-.47-.25-.93-.08-1.95-.35-2.85-.65-2.12-2.94.17-4-1-.59-.62-.57-1.65-.86-2.43s-.91-1.69-1.87-1.45c-1.92.47-1,5.65-1.38,7a6.21,6.21,0,0,1-.63,1.72c-.16.2-1,.62-1.2.23a1.61,1.61,0,0,0,.24.34c2.06,2.15,1.91-3,1.93-3.91s0-5,1.89-3.72c.95.66.55,2.2,1.38,2.91s2.12-.1,3.06.39c2.11,1.09.59,4.69,2.51,6,2.57,1.69,3.15-1.68,3.5-3.26.19-.86.85-2,1.9-2.09,1.55-.1,2.57,1,4.2.2,1.23-.57,2-1.89,3.37-2.21,1.91-.44,3.16,1.24,4.23,2.54,2.27,2.78-.1,6.83,1.69,9.62,1.43,2.23,4.78,3.28,6.1.31a11.42,11.42,0,0,0,.47-5.17c-.09-1.29-.54-2.87.15-4.07,1.69-2.93,2.45,2,4.12,2,2.2,0,1.1-3.27,2.83-3.75.88-.25,1.64.65,2.42.83,2.32.55,3.25-2,5-2.82s3.29-.27,3.58,1.68S80.29,50,83.78,48.6c.8-.32,1.65-1.17,2.54-.64.69.41.83,1.78,1.1,2.44a4.07,4.07,0,0,0,1.65,2c1.69,1,3.29.28,4-1.5s0-4.27,0-6.24c0-1.23.67-4.11,1.69-1.63.24.58.15,1.53,1,1.51s.91-1.07,1-1.63-.16-1.63.77-1.61c1.81,0-.39,5.53.57,7,.34.54,1.74.77,2-.08C100.11,47.88,99.58,47.65,99.09,47.36Z"/><path class="cls-7" d="M99.89,33.73c0,3.82-17,6.28-37.15,6.28S27,37.55,27,33.73s15.59-7.55,35.7-7.55S99.89,29.91,99.89,33.73Z"/><g class="cls-8"><path class="cls-9" d="M68.34,38.09C48.82,38,33.7,35.78,33.71,32.33c0-1.58,3.22-3.14,8.57-4.36C33.5,29.25,27.9,31.3,27.89,33.4c0,3.44,15.11,5.7,34.63,5.75,12.61,0,24-.87,30.42-2.44A184.3,184.3,0,0,1,68.34,38.09Z"/></g><path class="cls-29" d="M60.32,54.56c1.87-.35,1.79-3.4,1.74-4.53-.24-5.45-1-2.48-2.6-2.8s-3-2.66-3.81-3.81C56.5,46,55.86,55.4,60.32,54.56Z"/><path class="cls-30" d="M25.44,78.94c-2.39-.59-2.28-4.28-2.22-5.64.3-6.56,1.25-2.91,3.33-3.15s3.9-3,4.88-4.27C30.34,68.9,31.17,80.35,25.44,78.94Z"/><path class="cls-31" d="M34.61,75.45C33,75.13,31.77,71.89,30.5,71,27,68.39,33.68,69.63,35,69.39s4.84-2.15,5.44-3.06C36.87,70,38.11,76.15,34.61,75.45Z"/><path class="cls-32" d="M97.88,76.57c1.7-.42,1.62-3,1.58-4-.21-4.66-.89-2.07-2.37-2.24s-2.76-2.09-3.46-3C94.41,69.45,93.82,77.57,97.88,76.57Z"/><path class="cls-33" d="M67,84.73c-2.72-.47-2.6-4.57-2.53-6.09.34-7.3,1.43-3.32,3.79-3.75s4.44-3.57,5.56-5.11C72.56,73.22,73.5,85.86,67,84.73Z"/><path class="cls-34" d="M80.12,66.57c2.76,1.49,3.37,4.43,5.72,4.84,3.11.54,4.52-2.07,5.28-5.32Z"/><path class="cls-35" d="M90.88,50.24c1.62-.27,1.52-2.13,1.48-3-.21-4.2-.85-1.91-2.26-2.15S87.45,43,86.78,42.15C87.53,44.12,87,50.89,90.88,50.24Z"/><path class="cls-36" d="M38,48.26c-1.23-.22-1.16-1.74-1.13-2.45.14-3.43.64-1.56,1.7-1.77s2-1.69,2.49-2.41C40.51,43.25,40.94,48.77,38,48.26Z"/><path class="cls-37" d="M83.16,47.51c-1.25-.21-.71-3-1.7-4.61-1.74-2.73,1.46.45,2.54.26s2-1.59,2.56-2.27C86,42.42,86.16,48,83.16,47.51Z"/><path class="cls-5" d="M77.1,29.91a4.56,4.56,0,0,1-1.7.37c-4,.11-7.69.49-11.72-.19-1.83-.31-3.66-.68-5.47-1.1H52.94c-.73.81-2.3,0-2.17,1.17-.2,3.4,10.61,5.77,14.06,5.28,3.7-.52,8,1,10,1.31a27.38,27.38,0,0,0-1.35-3.17,17.28,17.28,0,0,0,5.3-1.38C79.46,30.59,78.44,30.16,77.1,29.91Z"/><path class="cls-19" d="M53.57,25.19c2.38-1.44,1-3.61,2.15-4.06C59.23,22,71.1,16.39,73,18.46c0,0,4.59,5.38-4.72,10.13C64.66,24.7,51,27.23,53.57,25.19Z"/><path class="cls-18" d="M73.94,31c-11,5.75-11.18-4.38-8.73-6.48,4.17-.43,6.24-2.06,11.47-1.89.84,0,1.77-.1,2-.6C75.62,25.84,76.83,29.22,73.94,31Z"/><path class="cls-18" d="M58.78,14c2.38-1.44,2.17-2.21,4.75-1.54,3.52.9,6-.69,8,2.21,0,0-2.35,4.27-4.79,5C63.2,15.79,56.22,16,58.78,14Z"/><path class="cls-18" d="M55.74,21c.64-1.53-.65-4.6-.39-4.75.92-.54,2.09-1.83,6.72,1.72,4.81,3.68,12.26.61,10.27-2.29,1.72,2-1.35,4.74-1.8,5.12C63.19,27,55.27,22.08,55.74,21Z"/><path class="cls-16" d="M55.64,21.12a5.72,5.72,0,0,0-5.85,3.37c-.9,1.92,5.3,5.77,12.44,5.52s10.34,5.14,11.85,5.92C73,32.57,69.43,26.2,66.33,25.2S55.44,24.52,55.64,21.12Z"/><path class="cls-17" d="M72,32.88c-.6-.76-5.42-4.55-12.08-4.9-6.31-.33-13.36-5-5.27-6.61-2.23,2,.52,4.22,4.33,4.56C63.24,26.32,66.83,24.49,72,32.88Z"/><path class="cls-18" d="M51.21,29.36c-.16-1.55-1.34-1.18-1.47-4.17.54,2,6.29,4.56,12.64,4.34,7.14-.25,10.19,5.62,11.7,6.4-2-.31-5.61-1.85-9.32-1.32C61.31,35.09,51,32.75,51.21,29.36Z"/><path class="cls-16" d="M73,18.46c-.41,2.5-5.65,5.48-7.74,6.06,5.19,1.06,6.24-2.06,11.47-1.89C79.47,22.73,79.7,18.69,73,18.46Z"/><path class="cls-17" d="M73,18.46c4,.78,5,2,3.81,3-.94.71-3.84,1.07-3.86,1.74a31.91,31.91,0,0,1,4.24-.35C79.93,22.9,79.7,18.69,73,18.46Z"/><path class="cls-18" d="M70.68,29.27c.61.92,2,3.36,2.08,3.53a18.66,18.66,0,0,0,5.36-1.27c.9-2.13,2.4-2.67,2.69-5.21C81.06,24.07,75.36,29.77,70.68,29.27Z"/><path class="cls-16" d="M70.73,29.34c3.84-1,5.32-2.29,5.87-3.5a4.55,4.55,0,0,1,.88-1.93c1.45.1,3.67.16,3.33,2.41S73.64,29.14,70.73,29.34Z"/><path class="cls-19" d="M70.73,29.34c3.84-1,5.32-2.29,5.87-3.5a4.55,4.55,0,0,1,.88-1.93l.26-.47c-2.49.52-1.11,4.07-7.77,4.85Z"/><path class="cls-19" d="M51.21,29.36a2.79,2.79,0,0,0-.74-1.54c7.18,3.13.93,4.56,13.92,5.78,7,.66,8.18,1.55,9.69,2.33-2-.31-5.61-1.85-9.32-1.32C61.31,35.09,51,32.75,51.21,29.36Z"/><path class="cls-7" d="M64.58,9.56c-.31-2-1.44-6.07,3.73-7.2.42.06.11.51.11.51s-5.11.2-3.64,6.74C64.58,9.72,64.58,9.56,64.58,9.56Z"/><path class="cls-38" d="M68.42,2.45l.09,0a.23.23,0,0,0-.2-.12c-5.17,1.13-4,5.22-3.73,7.2a.08.08,0,0,0,.11.08C64.38,7.66,63.26,3.58,68.42,2.45Z"/><path class="cls-39" d="M69.06,11.88c.32,2.14-1.12,3.32-3.26,3.64a3.1,3.1,0,0,1-4.49-2.45c-.33-2.14,1.28-3.26,3.41-3.59C66.94,7.87,68.73,9.75,69.06,11.88Z"/><path class="cls-40" d="M62.88,12.82a6.14,6.14,0,0,0,1.9-.71c.46-.22,1.08-.74,1.55-.29.26.25.61.88,1,.36.14-.21.13-.45.34-.63s.35-.09.61-.07.22,0,.28-.19a1.89,1.89,0,0,0-.64-1.77,2.28,2.28,0,0,0-1.72-.63,2.93,2.93,0,0,0-1.45.59,2.35,2.35,0,0,1-.62.13,4.5,4.5,0,0,0-.6.17,4.74,4.74,0,0,0-1,.54c-.54.37-1.18,1-1.05,1.77S62.21,12.9,62.88,12.82Z"/><path class="cls-16" d="M58.58,14.05c-1,.52-3.07,1.24-3.23,2.17.92-.54,2.09-1.54,6.72,2,4.81,3.68,10.93.88,10.27-2.57-.58-3.07-3.92-.29-4.5-.23C60.87,16.14,60.53,13,58.58,14.05Z"/><path class="cls-17" d="M55.35,16.22c.92-.54,2.09-1.47,6.72,2.08,4.81,3.68,12.58.21,10.27-2.65,1.17,2.45-4.27,2.86-7.87,1.8C60.61,16.32,56.87,14.31,55.35,16.22Z"/><path class="cls-41" d="M14.31,55.15c-1.86,1.61,2.69,1.79,3.79,2.24.49.51,1.63.86,4,.7l0-.06c1-.75,8.91-.57,6.55-2.79Z"/><path class="cls-16" d="M24.24,50c1,1.72-1.49,5.65-4.14,7.36,2.13.44,2.16-.37,3.08-.47C31.59,56,27.22,51.51,24.24,50Z"/><path class="cls-17" d="M15.14,55.42c-1.47-.16-.74-2,.7-2.76C17.91,51.62,24,50,20,48,27.43,48.31,20.77,56.07,15.14,55.42Z"/><path class="cls-16" d="M15.14,55.42a.78.78,0,0,1-.8-.92c.08-.64-.07.44,2-.36C19.67,52.85,25.29,50.08,20,48,27.43,48.31,20.77,56.07,15.14,55.42Z"/><path class="cls-18" d="M14.34,54.5c.09.52.55,1,2.57,0,4.4-2,8.85-5.19,3.09-6.51,6.85.25,3.59,8.38-1.67,8.88C17.51,56.24,13.82,56.81,14.34,54.5Z"/><path class="cls-19" d="M18,55.89a4.89,4.89,0,0,1-2.12,0,4.16,4.16,0,0,1-1.52-.66c.38,1.43,3.28,1.08,4,1.66a4.52,4.52,0,0,0,.75-.13A2.28,2.28,0,0,1,18,55.89Z"/><path class="cls-17" d="M18,56.67c-1.15-1.28-.3-2.42,1.14-3.14,2.07-1,7.15-4.17.82-5.5C29.51,49,19.48,56.24,18,56.67Z"/><path class="cls-16" d="M22.09,57.48c-6.32.41-3.92-2.77-3.56-2.95C22.73,52.4,27.07,49,20,48c7.32.36,4.79,7.19.08,8.17C19.57,56.3,19.54,56.37,22.09,57.48Z"/><path class="cls-18" d="M22.09,57.48c-4.6.14-2.8-1.39-1.82-1.88,4.72-2.34,4.29-4.73,3.62-6.14C27.47,55.14,20.48,55,22.09,57.48Z"/><path class="cls-18" d="M24.24,50c8.7,5.37-2.95,5.92-2.26,7.53.83-.92,7.72.25,6.77-3.49C28.31,52.23,24.73,50.19,24.24,50Z"/><path class="cls-17" d="M24.22,50C28.51,53.59,22,55.9,22,57.27,23.51,55.2,31.61,54.2,24.22,50Z"/><path class="cls-16" d="M15.84,52.66c2.07-1,8.41-2.53,4.16-4.63C21,49.66,18.86,51,15.84,52.66Z"/><path class="cls-19" d="M22.14,55.55c3.82-2.43,2.42-4.68,1.75-6.09,3.13,5-1.83,5.48-2,7.19C21.82,56.9,21.19,56.16,22.14,55.55Z"/><path class="cls-19" d="M22.37,56.83c-.32.21-.49.42-.39.65.73-.81,6.07,0,6.78-2.29C27.53,56.52,24.1,56.53,22.37,56.83Z"/><path class="cls-42" d="M97.31,55.15c-1.86,1.61,2.7,1.79,3.79,2.24.49.51,1.63.86,4,.7l0-.06c1-.75,8.91-.57,6.55-2.79Z"/><path class="cls-16" d="M107.25,50c.94,1.72-1.5,5.65-4.15,7.36,2.13.44,2.16-.37,3.08-.47C114.59,56,110.22,51.51,107.25,50Z"/><path class="cls-17" d="M98.14,55.42c-1.47-.16-.74-2,.7-2.76C100.91,51.62,107,50,103,48,110.43,48.31,103.77,56.07,98.14,55.42Z"/><path class="cls-16" d="M98.14,55.42a.77.77,0,0,1-.79-.92c.07-.64-.08.44,2-.36,3.33-1.29,8.94-4.06,3.65-6.11C110.43,48.31,103.77,56.07,98.14,55.42Z"/><path class="cls-18" d="M97.35,54.5c.08.52.54,1,2.57,0,4.39-2,8.84-5.19,3.08-6.51,6.85.25,3.59,8.38-1.66,8.88C100.51,56.24,96.82,56.81,97.35,54.5Z"/><path class="cls-19" d="M101,55.89a4.89,4.89,0,0,1-2.12,0,4.16,4.16,0,0,1-1.52-.66c.38,1.43,3.28,1.08,4,1.66a4.58,4.58,0,0,0,.74-.13A2.32,2.32,0,0,1,101,55.89Z"/><path class="cls-17" d="M101,56.67c-1.15-1.28-.3-2.42,1.14-3.14,2.07-1,7.15-4.17.82-5.5C112.51,49,102.49,56.24,101,56.67Z"/><path class="cls-16" d="M105.1,57.48c-6.33.41-3.92-2.77-3.57-2.95,4.2-2.13,8.54-5.49,1.47-6.5,7.32.36,4.79,7.19.08,8.17C102.57,56.3,102.54,56.37,105.1,57.48Z"/><path class="cls-18" d="M105.1,57.48c-4.61.14-2.81-1.39-1.83-1.88,4.72-2.34,4.29-4.73,3.63-6.14C110.47,55.14,103.48,55,105.1,57.48Z"/><path class="cls-18" d="M107.25,50c8.7,5.37-3,5.92-2.26,7.53.82-.92,7.71.25,6.76-3.49C111.31,52.23,107.73,50.19,107.25,50Z"/><path class="cls-17" d="M107.22,50c4.29,3.64-2.23,5.95-2.26,7.32C106.51,55.2,114.61,54.2,107.22,50Z"/><path class="cls-16" d="M98.84,52.66c2.07-1,8.41-2.53,4.16-4.63C104,49.66,101.87,51,98.84,52.66Z"/><path class="cls-19" d="M105.14,55.55c3.82-2.43,2.42-4.68,1.76-6.09,3.13,5-1.84,5.48-2,7.19C104.83,56.9,104.19,56.16,105.14,55.55Z"/><path class="cls-19" d="M105.37,56.83c-.32.21-.48.42-.38.65.72-.81,6.06,0,6.77-2.29C110.53,56.52,107.11,56.53,105.37,56.83Z"/><path class="cls-43" d="M24,58.49c-1.87,1.61,2.69,1.79,3.79,2.25.48.5,1.63.85,4,.7l0-.07c1-.74,8.91-.57,6.55-2.79Z"/><path class="cls-16" d="M34,53.29c.95,1.73-1.5,5.65-4.15,7.37,2.14.44,2.17-.38,3.08-.48C41.29,59.3,36.92,54.86,34,53.29Z"/><path class="cls-17" d="M24.85,58.77c-1.47-.17-.75-2.05.7-2.77,2.07-1,8.14-2.66,4.16-4.63C37.14,51.65,30.48,59.41,24.85,58.77Z"/><path class="cls-16" d="M24.85,58.77a.78.78,0,0,1-.8-.93c.08-.63-.07.45,2-.36,3.33-1.29,8.94-4.06,3.66-6.11C37.14,51.65,30.48,59.41,24.85,58.77Z"/><path class="cls-18" d="M24.05,57.84c.08.52.55,1,2.57,0,4.4-2,8.84-5.2,3.09-6.52,6.85.26,3.59,8.39-1.67,8.89C27.22,59.59,23.53,60.16,24.05,57.84Z"/><path class="cls-19" d="M27.69,59.23a4.74,4.74,0,0,1-2.12,0A4.31,4.31,0,0,1,24,58.6c.39,1.43,3.28,1.07,4,1.66a5.86,5.86,0,0,0,.75-.13A2.3,2.3,0,0,1,27.69,59.23Z"/><path class="cls-17" d="M27.75,60c-1.15-1.28-.31-2.42,1.13-3.14,2.08-1,7.15-4.16.83-5.5C39.21,52.3,29.19,59.58,27.75,60Z"/><path class="cls-16" d="M31.8,60.82c-6.33.42-3.92-2.77-3.57-3,4.21-2.12,8.55-5.49,1.48-6.5,7.32.37,4.78,7.19.07,8.17C29.27,59.65,29.24,59.71,31.8,60.82Z"/><path class="cls-18" d="M31.8,60.82C27.2,61,29,59.43,30,59c4.71-2.35,4.29-4.73,3.62-6.15C37.18,58.48,30.18,58.35,31.8,60.82Z"/><path class="cls-18" d="M34,53.29c8.7,5.38-3,5.92-2.26,7.54.83-.93,7.72.24,6.77-3.49C38,55.57,34.43,53.54,34,53.29Z"/><path class="cls-17" d="M33.93,53.3c4.28,3.64-2.24,5.94-2.26,7.32C33.22,58.55,41.32,57.55,33.93,53.3Z"/><path class="cls-16" d="M25.55,56c2.07-1,8.41-2.52,4.16-4.63C30.69,53,28.57,54.33,25.55,56Z"/><path class="cls-19" d="M31.85,58.9c3.82-2.44,2.42-4.68,1.75-6.1,3.13,5-1.83,5.49-2,7.2C31.53,60.24,30.9,59.5,31.85,58.9Z"/><path class="cls-19" d="M32.07,60.17c-.32.21-.48.42-.38.66.72-.81,6.06,0,6.78-2.29C37.24,59.86,33.81,59.88,32.07,60.17Z"/><path class="cls-44" d="M89,57.61c-1.86,1.61,2.69,1.79,3.79,2.24.49.51,1.63.85,4,.7l0-.06c1-.75,8.91-.58,6.55-2.8Z"/><path class="cls-16" d="M98.9,52.4c.95,1.73-1.49,5.65-4.14,7.37,2.13.44,2.16-.38,3.08-.47C106.25,58.41,101.88,54,98.9,52.4Z"/><path class="cls-17" d="M89.8,57.88c-1.47-.17-.74-2.05.7-2.77,2.07-1,8.14-2.66,4.16-4.63C102.09,50.76,95.43,58.52,89.8,57.88Z"/><path class="cls-16" d="M89.8,57.88A.79.79,0,0,1,89,57c.08-.63-.07.45,2-.35,3.33-1.3,8.94-4.06,3.65-6.12C102.09,50.76,95.43,58.52,89.8,57.88Z"/><path class="cls-18" d="M89,57c.09.53.55,1,2.57,0,4.4-2,8.85-5.19,3.09-6.52,6.85.26,3.59,8.39-1.67,8.89C92.17,58.7,88.48,59.27,89,57Z"/><path class="cls-19" d="M92.64,58.34a4.74,4.74,0,0,1-2.12,0A4.34,4.34,0,0,1,89,57.71c.38,1.43,3.28,1.08,4,1.66a5.86,5.86,0,0,0,.75-.13A2.3,2.3,0,0,1,92.64,58.34Z"/><path class="cls-17" d="M92.7,59.12c-1.15-1.27-.3-2.42,1.14-3.14,2.07-1,7.15-4.16.82-5.5C104.17,51.41,94.14,58.69,92.7,59.12Z"/><path class="cls-16" d="M96.75,59.93c-6.32.42-3.92-2.76-3.56-2.94,4.2-2.13,8.54-5.5,1.47-6.51,7.32.37,4.79,7.19.08,8.17C94.23,58.76,94.2,58.82,96.75,59.93Z"/><path class="cls-18" d="M96.75,59.93c-4.6.14-2.8-1.39-1.82-1.87,4.72-2.34,4.29-4.73,3.62-6.14C102.13,57.59,95.14,57.46,96.75,59.93Z"/><path class="cls-18" d="M98.9,52.4c8.7,5.38-3,5.93-2.26,7.54.83-.93,7.72.25,6.77-3.49C103,54.69,99.39,52.65,98.9,52.4Z"/><path class="cls-17" d="M98.88,52.41c4.29,3.64-2.24,5.94-2.26,7.32C98.17,57.66,106.27,56.66,98.88,52.41Z"/><path class="cls-16" d="M90.5,55.11c2.07-1,8.41-2.52,4.16-4.63C95.64,52.12,93.53,53.44,90.5,55.11Z"/><path class="cls-19" d="M96.8,58c3.82-2.44,2.42-4.68,1.75-6.09,3.13,5-1.83,5.48-2,7.19C96.48,59.36,95.85,58.61,96.8,58Z"/><path class="cls-19" d="M97,59.29c-.32.2-.49.41-.39.65.73-.81,6.07,0,6.78-2.29C102.19,59,98.77,59,97,59.29Z"/><path class="cls-45" d="M35.89,60.13c-1.87,1.61,2.69,1.78,3.79,2.24.48.5,1.63.85,4,.7l0-.06c1-.75,8.91-.58,6.55-2.8Z"/><path class="cls-16" d="M45.82,54.92c1,1.73-1.5,5.65-4.15,7.37,2.14.44,2.17-.38,3.08-.47C53.16,60.93,48.79,56.49,45.82,54.92Z"/><path class="cls-17" d="M36.72,60.4c-1.47-.17-.75-2,.7-2.77,2.07-1,8.14-2.66,4.16-4.63C49,53.28,42.35,61,36.72,60.4Z"/><path class="cls-16" d="M36.72,60.4a.78.78,0,0,1-.8-.93c.08-.63-.07.45,2-.36,3.33-1.29,8.94-4.06,3.66-6.11C49,53.28,42.35,61,36.72,60.4Z"/><path class="cls-18" d="M35.92,59.47c.08.53.55,1,2.57.05,4.4-2,8.84-5.19,3.09-6.52,6.85.26,3.59,8.39-1.67,8.89C39.09,61.22,35.4,61.79,35.92,59.47Z"/><path class="cls-19" d="M39.56,60.86a4.74,4.74,0,0,1-2.12,0,4.31,4.31,0,0,1-1.53-.66c.39,1.43,3.28,1.07,4,1.66a5.86,5.86,0,0,0,.75-.13A2.3,2.3,0,0,1,39.56,60.86Z"/><path class="cls-17" d="M39.62,61.64c-1.15-1.28-.31-2.42,1.13-3.14,2.08-1,7.15-4.16.83-5.5C51.08,53.93,41.06,61.21,39.62,61.64Z"/><path class="cls-16" d="M43.67,62.45c-6.33.42-3.92-2.77-3.57-2.94,4.2-2.13,8.55-5.5,1.48-6.51,7.32.37,4.78,7.19.07,8.17C41.14,61.28,41.11,61.34,43.67,62.45Z"/><path class="cls-18" d="M43.67,62.45c-4.61.14-2.8-1.39-1.82-1.87,4.71-2.35,4.29-4.73,3.62-6.14C49.05,60.11,42.05,60,43.67,62.45Z"/><path class="cls-18" d="M45.82,54.92c8.7,5.38-3,5.92-2.26,7.54.83-.93,7.72.24,6.77-3.49C49.88,57.21,46.3,55.17,45.82,54.92Z"/><path class="cls-17" d="M45.8,54.93c4.28,3.64-2.24,5.94-2.26,7.32C45.09,60.18,53.19,59.18,45.8,54.93Z"/><path class="cls-16" d="M37.42,57.63c2.07-1,8.41-2.52,4.16-4.63C42.56,54.63,40.44,56,37.42,57.63Z"/><path class="cls-19" d="M43.72,60.53c3.82-2.44,2.42-4.68,1.75-6.09,3.13,5-1.83,5.48-2,7.19C43.4,61.88,42.77,61.13,43.72,60.53Z"/><path class="cls-19" d="M43.94,61.81c-.32.2-.48.41-.38.65.72-.81,6.06,0,6.78-2.29C49.11,61.5,45.68,61.51,43.94,61.81Z"/><path class="cls-46" d="M77.16,59.86c-1.87,1.61,2.69,1.79,3.79,2.24.49.51,1.63.85,4,.7l0-.06c1-.75,8.91-.58,6.55-2.8Z"/><path class="cls-16" d="M87.09,54.65c1,1.73-1.49,5.65-4.15,7.37,2.14.44,2.17-.38,3.08-.47C94.43,60.66,90.06,56.22,87.09,54.65Z"/><path class="cls-17" d="M78,60.13c-1.47-.17-.74-2.05.7-2.77,2.07-1,8.14-2.66,4.16-4.63C90.28,53,83.62,60.77,78,60.13Z"/><path class="cls-16" d="M78,60.13a.78.78,0,0,1-.8-.93c.08-.63-.07.45,2-.35,3.33-1.3,8.94-4.06,3.66-6.12C90.28,53,83.62,60.77,78,60.13Z"/><path class="cls-18" d="M77.19,59.2c.08.53.55,1,2.57,0,4.4-2,8.84-5.19,3.09-6.52,6.85.26,3.59,8.39-1.67,8.89C80.36,61,76.67,61.52,77.19,59.2Z"/><path class="cls-19" d="M80.83,60.59a4.74,4.74,0,0,1-2.12,0A4.39,4.39,0,0,1,77.18,60c.39,1.43,3.28,1.08,4,1.66a5.86,5.86,0,0,0,.75-.13A2.3,2.3,0,0,1,80.83,60.59Z"/><path class="cls-17" d="M80.89,61.38C79.74,60.1,80.58,59,82,58.23c2.07-1,7.14-4.16.82-5.5C92.36,53.66,82.33,60.94,80.89,61.38Z"/><path class="cls-16" d="M84.94,62.18c-6.32.42-3.92-2.76-3.57-2.94,4.21-2.13,8.55-5.5,1.48-6.51,7.32.37,4.79,7.19.07,8.17C82.41,61,82.38,61.07,84.94,62.18Z"/><path class="cls-18" d="M84.94,62.18c-4.6.14-2.8-1.39-1.82-1.87,4.71-2.34,4.29-4.73,3.62-6.14C90.32,59.84,83.32,59.71,84.94,62.18Z"/><path class="cls-18" d="M87.09,54.65c8.7,5.38-3,5.93-2.26,7.54.83-.93,7.72.25,6.77-3.49C91.16,56.94,87.57,54.9,87.09,54.65Z"/><path class="cls-17" d="M87.07,54.66c4.28,3.64-2.24,5.94-2.26,7.32C86.36,59.91,94.46,58.91,87.07,54.66Z"/><path class="cls-16" d="M78.69,57.36c2.07-1,8.41-2.52,4.16-4.63C83.83,54.37,81.71,55.69,78.69,57.36Z"/><path class="cls-19" d="M85,60.26c3.82-2.44,2.42-4.68,1.75-6.09,3.13,5-1.83,5.48-2,7.19C84.67,61.61,84,60.86,85,60.26Z"/><path class="cls-19" d="M85.21,61.54c-.31.2-.48.41-.38.65.72-.81,6.06,0,6.78-2.29C90.38,61.23,87,61.24,85.21,61.54Z"/><path class="cls-47" d="M49.42,60.74c-1.87,1.61,2.69,1.78,3.79,2.24.48.51,1.63.85,4,.7l0-.06c1-.75,8.91-.58,6.55-2.8Z"/><path class="cls-16" d="M59.35,55.53c.95,1.73-1.5,5.65-4.15,7.37,2.14.44,2.17-.38,3.08-.47C66.69,61.54,62.32,57.1,59.35,55.53Z"/><path class="cls-17" d="M50.25,61c-1.47-.17-.75-2,.7-2.77,2.07-1,8.14-2.66,4.16-4.63C62.54,53.89,55.88,61.65,50.25,61Z"/><path class="cls-16" d="M50.25,61a.78.78,0,0,1-.8-.93c.08-.63-.07.45,2-.35,3.33-1.3,8.94-4.06,3.66-6.12C62.54,53.89,55.88,61.65,50.25,61Z"/><path class="cls-18" d="M49.45,60.08c.08.53.55,1,2.57.05,4.4-2,8.84-5.19,3.09-6.52C62,53.87,58.7,62,53.44,62.5,52.62,61.83,48.93,62.4,49.45,60.08Z"/><path class="cls-19" d="M53.09,61.47a4.74,4.74,0,0,1-2.12,0,4.31,4.31,0,0,1-1.53-.66c.39,1.43,3.28,1.07,4,1.66a6.18,6.18,0,0,0,.75-.13A2.3,2.3,0,0,1,53.09,61.47Z"/><path class="cls-17" d="M53.14,62.25c-1.14-1.27-.3-2.42,1.14-3.14,2.08-1,7.15-4.16.83-5.5C64.61,54.54,54.59,61.82,53.14,62.25Z"/><path class="cls-16" d="M57.2,63.06c-6.33.42-3.92-2.77-3.57-2.94,4.2-2.13,8.55-5.5,1.48-6.51,7.32.37,4.78,7.19.07,8.17C54.67,61.89,54.64,62,57.2,63.06Z"/><path class="cls-18" d="M57.2,63.06c-4.61.14-2.81-1.39-1.82-1.87,4.71-2.34,4.29-4.73,3.62-6.14C62.58,60.72,55.58,60.59,57.2,63.06Z"/><path class="cls-18" d="M59.35,55.53c8.7,5.38-3,5.92-2.26,7.54.83-.93,7.72.25,6.77-3.49C63.41,57.82,59.83,55.78,59.35,55.53Z"/><path class="cls-17" d="M59.33,55.54c4.28,3.64-2.24,5.94-2.26,7.32C58.62,60.79,66.72,59.79,59.33,55.54Z"/><path class="cls-16" d="M51,58.24c2.07-1,8.41-2.52,4.16-4.63C56.09,55.25,54,56.57,51,58.24Z"/><path class="cls-19" d="M57.25,61.14c3.82-2.44,2.42-4.68,1.75-6.09,3.13,5-1.83,5.48-2,7.19C56.93,62.49,56.3,61.74,57.25,61.14Z"/><path class="cls-19" d="M57.47,62.42c-.32.2-.48.41-.38.65.72-.81,6.06,0,6.78-2.29C62.64,62.11,59.21,62.12,57.47,62.42Z"/><path class="cls-48" d="M63.22,60.77C61.35,62.38,65.91,62.56,67,63c.49.5,1.63.85,4,.69,0,0,0,0,0-.06,1-.74,8.92-.57,6.55-2.79Z"/><path class="cls-16" d="M73.15,55.57c.95,1.72-1.5,5.65-4.15,7.37,2.14.44,2.17-.38,3.08-.48C80.49,61.57,76.12,57.13,73.15,55.57Z"/><path class="cls-17" d="M64.05,61.05c-1.48-.17-.75-2,.69-2.77,2.07-1,8.14-2.66,4.16-4.63C76.33,53.93,69.67,61.69,64.05,61.05Z"/><path class="cls-16" d="M64.05,61.05a.78.78,0,0,1-.8-.93c.07-.63-.08.45,2-.36,3.33-1.29,8.94-4.06,3.65-6.11C76.33,53.93,69.67,61.69,64.05,61.05Z"/><path class="cls-18" d="M63.25,60.12c.08.52.54,1,2.57.05,4.4-2,8.84-5.2,3.08-6.52,6.85.26,3.59,8.38-1.66,8.89C66.42,61.87,62.73,62.43,63.25,60.12Z"/><path class="cls-19" d="M66.88,61.51a4.74,4.74,0,0,1-2.12,0,4.18,4.18,0,0,1-1.52-.67c.38,1.44,3.28,1.08,4,1.67a6.54,6.54,0,0,0,.75-.13A2.32,2.32,0,0,1,66.88,61.51Z"/><path class="cls-17" d="M66.94,62.29c-1.15-1.28-.3-2.42,1.14-3.14,2.07-1,7.15-4.16.82-5.5C78.41,54.58,68.39,61.86,66.94,62.29Z"/><path class="cls-16" d="M71,63.1c-6.33.42-3.92-2.77-3.57-3,4.2-2.12,8.55-5.49,1.47-6.5,7.32.37,4.79,7.19.08,8.17C68.47,61.93,68.44,62,71,63.1Z"/><path class="cls-18" d="M71,63.1c-4.61.14-2.81-1.39-1.83-1.88,4.72-2.34,4.29-4.72,3.63-6.14C76.37,60.76,69.38,60.63,71,63.1Z"/><path class="cls-18" d="M73.15,55.57c8.7,5.38-3,5.92-2.26,7.54.82-.93,7.71.24,6.77-3.49C77.21,57.85,73.63,55.82,73.15,55.57Z"/><path class="cls-17" d="M73.13,55.58c4.28,3.64-2.24,5.94-2.26,7.32C72.41,60.83,80.52,59.83,73.13,55.58Z"/><path class="cls-16" d="M64.74,58.28c2.07-1,8.41-2.52,4.16-4.63C69.88,55.28,67.77,56.61,64.74,58.28Z"/><path class="cls-19" d="M71,61.18c3.82-2.44,2.42-4.68,1.76-6.1,3.13,5-1.84,5.49-2,7.2C70.73,62.52,70.1,61.78,71,61.18Z"/><path class="cls-19" d="M71.27,62.45c-.32.21-.48.42-.38.66.72-.81,6.06,0,6.78-2.29C76.44,62.14,73,62.16,71.27,62.45Z"/><path class="cls-49" d="M1.81,85.4C0,87,4.5,87.19,5.6,87.64c.49.51,1.63.86,4,.7l0-.06c1-.75,8.91-.57,6.55-2.79Z"/><path class="cls-16" d="M11.74,80.2c.95,1.72-1.49,5.65-4.14,7.36,2.13.44,2.16-.37,3.08-.47C19.09,86.2,14.72,81.76,11.74,80.2Z"/><path class="cls-17" d="M2.64,85.67c-1.47-.17-.74-2,.7-2.76,2.07-1,8.14-2.67,4.16-4.63C14.93,78.56,8.27,86.32,2.64,85.67Z"/><path class="cls-16" d="M2.64,85.67a.78.78,0,0,1-.8-.92c.08-.64-.07.44,2-.36,3.32-1.29,8.94-4.06,3.65-6.11C14.93,78.56,8.27,86.32,2.64,85.67Z"/><path class="cls-18" d="M1.84,84.75c.09.52.55,1,2.57,0,4.4-2,8.85-5.19,3.09-6.51,6.85.25,3.59,8.38-1.67,8.88C5,86.49,1.32,87.06,1.84,84.75Z"/><path class="cls-19" d="M5.48,86.14a4.89,4.89,0,0,1-2.12,0,4.16,4.16,0,0,1-1.52-.66c.38,1.43,3.28,1.08,4,1.66A4.52,4.52,0,0,0,6.58,87,2.28,2.28,0,0,1,5.48,86.14Z"/><path class="cls-17" d="M5.54,86.92c-1.15-1.28-.3-2.42,1.14-3.14,2.07-1,7.15-4.17.82-5.5C17,79.2,7,86.49,5.54,86.92Z"/><path class="cls-16" d="M9.59,87.73c-6.32.41-3.92-2.77-3.56-3,4.2-2.13,8.54-5.49,1.47-6.5,7.32.36,4.79,7.19.08,8.17C7.07,86.55,7,86.62,9.59,87.73Z"/><path class="cls-18" d="M9.59,87.73c-4.6.14-2.8-1.39-1.82-1.88,4.72-2.34,4.29-4.73,3.62-6.14C15,85.39,8,85.25,9.59,87.73Z"/><path class="cls-18" d="M11.74,80.2c8.7,5.37-3,5.92-2.26,7.53.83-.92,7.72.25,6.77-3.49C15.81,82.48,12.23,80.44,11.74,80.2Z"/><path class="cls-17" d="M11.72,80.2c4.29,3.64-2.24,6-2.26,7.32C11,85.45,19.11,84.45,11.72,80.2Z"/><path class="cls-16" d="M3.34,82.91c2.07-1,8.41-2.53,4.16-4.63C8.48,79.91,6.36,81.23,3.34,82.91Z"/><path class="cls-19" d="M9.64,85.8c3.82-2.43,2.42-4.68,1.75-6.09,3.13,5-1.83,5.48-2,7.19C9.32,87.15,8.69,86.41,9.64,85.8Z"/><path class="cls-19" d="M9.87,87.08c-.32.21-.49.42-.39.65.73-.81,6.07,0,6.78-2.29C15,86.77,11.6,86.78,9.87,87.08Z"/><path class="cls-50" d="M111.78,85.68c-1.87,1.61,2.69,1.79,3.78,2.24.49.51,1.64.86,4,.7a.21.21,0,0,0,0-.06c1-.75,8.92-.57,6.56-2.79Z"/><path class="cls-16" d="M121.71,80.48c1,1.72-1.5,5.65-4.15,7.36,2.14.45,2.17-.37,3.08-.47C129.05,86.48,124.68,82,121.71,80.48Z"/><path class="cls-17" d="M112.61,86c-1.48-.16-.75-2,.69-2.76,2.08-1,8.14-2.67,4.16-4.63C124.9,78.84,118.24,86.6,112.61,86Z"/><path class="cls-16" d="M112.61,86c-.63-.07-.86-.45-.8-.92.08-.64-.07.44,2-.36,3.33-1.29,8.94-4.06,3.65-6.11C124.9,78.84,118.24,86.6,112.61,86Z"/><path class="cls-18" d="M111.81,85c.08.52.54,1,2.57,0,4.4-2,8.84-5.2,3.08-6.52,6.86.25,3.59,8.38-1.66,8.88C115,86.77,111.29,87.34,111.81,85Z"/><path class="cls-19" d="M115.44,86.42a4.84,4.84,0,0,1-2.11,0,4.14,4.14,0,0,1-1.53-.66c.38,1.43,3.28,1.08,4,1.66a4.91,4.91,0,0,0,.75-.13A2.3,2.3,0,0,1,115.44,86.42Z"/><path class="cls-17" d="M115.5,87.2c-1.15-1.28-.3-2.42,1.14-3.14,2.07-1,7.15-4.17.82-5.5C127,79.48,117,86.77,115.5,87.2Z"/><path class="cls-16" d="M119.56,88c-6.33.41-3.92-2.77-3.57-3,4.2-2.13,8.55-5.49,1.47-6.5,7.32.37,4.79,7.19.08,8.17C117,86.83,117,86.9,119.56,88Z"/><path class="cls-18" d="M119.56,88c-4.61.14-2.81-1.39-1.83-1.88,4.72-2.34,4.3-4.73,3.63-6.14C124.94,85.67,117.94,85.53,119.56,88Z"/><path class="cls-18" d="M121.71,80.48c8.7,5.37-3,5.92-2.26,7.53.83-.92,7.71.25,6.77-3.49C125.77,82.76,122.19,80.72,121.71,80.48Z"/><path class="cls-17" d="M121.69,80.48c4.28,3.64-2.24,6-2.26,7.32C121,85.73,129.08,84.73,121.69,80.48Z"/><path class="cls-16" d="M113.3,83.19c2.08-1,8.41-2.52,4.16-4.63C118.45,80.19,116.33,81.51,113.3,83.19Z"/><path class="cls-19" d="M119.61,86.08c3.81-2.43,2.42-4.68,1.75-6.09,3.13,5-1.84,5.48-2,7.19C119.29,87.43,118.66,86.69,119.61,86.08Z"/><path class="cls-19" d="M119.83,87.36c-.32.21-.48.42-.38.65.72-.81,6.06,0,6.78-2.29C125,87.05,121.57,87.06,119.83,87.36Z"/><path class="cls-51" d="M104.67,89.43c-1.86,1.6,2.7,1.78,3.79,2.24.49.5,1.63.85,4,.7a.25.25,0,0,1,0-.07c1-.74,8.91-.57,6.55-2.79Z"/><path class="cls-16" d="M114.61,84.22c.94,1.73-1.5,5.65-4.15,7.37,2.13.44,2.16-.38,3.08-.47C122,90.23,117.58,85.79,114.61,84.22Z"/><path class="cls-17" d="M105.5,89.7c-1.47-.17-.74-2,.7-2.77,2.07-1,8.14-2.66,4.16-4.63C117.79,82.58,111.13,90.34,105.5,89.7Z"/><path class="cls-16" d="M105.5,89.7a.79.79,0,0,1-.8-.93c.08-.63-.07.45,2-.36,3.33-1.29,8.94-4.06,3.65-6.11C117.79,82.58,111.13,90.34,105.5,89.7Z"/><path class="cls-18" d="M104.7,88.77c.09.53.55,1,2.57,0,4.4-2,8.85-5.19,3.09-6.52,6.85.26,3.59,8.39-1.66,8.89C107.87,90.52,104.18,91.09,104.7,88.77Z"/><path class="cls-19" d="M108.34,90.16a4.74,4.74,0,0,1-2.12,0,4.34,4.34,0,0,1-1.52-.66c.38,1.43,3.28,1.07,4,1.66a6,6,0,0,0,.74-.13A2.3,2.3,0,0,1,108.34,90.16Z"/><path class="cls-17" d="M108.4,90.94c-1.15-1.28-.3-2.42,1.14-3.14,2.07-1,7.15-4.16.82-5.5C119.87,83.23,109.85,90.51,108.4,90.94Z"/><path class="cls-16" d="M112.46,91.75c-6.33.42-3.93-2.77-3.57-2.94,4.2-2.13,8.54-5.5,1.47-6.51,7.32.37,4.79,7.19.08,8.17C109.93,90.58,109.9,90.64,112.46,91.75Z"/><path class="cls-18" d="M112.46,91.75c-4.61.14-2.81-1.39-1.83-1.87,4.72-2.35,4.29-4.73,3.63-6.14C117.83,89.41,110.84,89.28,112.46,91.75Z"/><path class="cls-18" d="M114.61,84.22c8.7,5.38-3,5.92-2.26,7.54.82-.93,7.71.24,6.76-3.49C118.67,86.51,115.09,84.47,114.61,84.22Z"/><path class="cls-17" d="M114.58,84.23c4.29,3.64-2.24,5.94-2.26,7.32C113.87,89.48,122,88.48,114.58,84.23Z"/><path class="cls-16" d="M106.2,86.93c2.07-1,8.41-2.52,4.16-4.63C111.34,83.93,109.23,85.26,106.2,86.93Z"/><path class="cls-19" d="M112.5,89.83c3.82-2.44,2.42-4.68,1.76-6.09,3.12,5-1.84,5.48-2.05,7.19C112.19,91.17,111.55,90.43,112.5,89.83Z"/><path class="cls-19" d="M112.73,91.11c-.32.2-.49.41-.38.65.72-.81,6.06,0,6.77-2.29C117.89,90.79,114.47,90.81,112.73,91.11Z"/><path class="cls-52" d="M9.1,90c-1.87,1.61,2.69,1.79,3.78,2.24.49.51,1.63.85,4,.7,0,0,0,0,0-.06,1-.75,8.92-.58,6.55-2.79Z"/><path class="cls-16" d="M19,84.79c.95,1.72-1.5,5.65-4.15,7.36,2.14.44,2.17-.38,3.08-.47C26.37,90.79,22,86.35,19,84.79Z"/><path class="cls-17" d="M9.93,90.26c-1.48-.17-.75-2,.69-2.76,2.07-1,8.14-2.67,4.16-4.63C22.21,83.14,15.55,90.91,9.93,90.26Z"/><path class="cls-16" d="M9.93,90.26c-.63-.07-.86-.45-.8-.92.07-.64-.08.44,2-.36,3.33-1.29,8.94-4.06,3.65-6.11C22.21,83.14,15.55,90.91,9.93,90.26Z"/><path class="cls-18" d="M9.13,89.34c.08.52.54,1,2.57,0,4.4-2,8.84-5.19,3.08-6.51,6.85.25,3.59,8.38-1.66,8.88C12.29,91.08,8.6,91.65,9.13,89.34Z"/><path class="cls-19" d="M12.76,90.73a4.89,4.89,0,0,1-2.12,0,4.16,4.16,0,0,1-1.52-.66c.38,1.43,3.28,1.08,4,1.66a4.58,4.58,0,0,0,.74-.13A2.32,2.32,0,0,1,12.76,90.73Z"/><path class="cls-17" d="M12.82,91.51c-1.15-1.28-.3-2.42,1.14-3.14,2.07-1,7.15-4.17.82-5.5C24.29,83.79,14.27,91.08,12.82,91.51Z"/><path class="cls-16" d="M16.88,92.32c-6.33.41-3.92-2.77-3.57-2.95,4.2-2.13,8.55-5.49,1.47-6.5,7.32.36,4.79,7.18.08,8.17C14.35,91.14,14.32,91.2,16.88,92.32Z"/><path class="cls-18" d="M16.88,92.32c-4.61.14-2.81-1.39-1.83-1.88,4.72-2.34,4.29-4.73,3.63-6.14C22.25,90,15.26,89.84,16.88,92.32Z"/><path class="cls-18" d="M19,84.79c8.7,5.37-3,5.92-2.26,7.53.82-.92,7.71.25,6.77-3.49C23.09,87.07,19.51,85,19,84.79Z"/><path class="cls-17" d="M19,84.79c4.28,3.64-2.24,5.94-2.27,7.32C18.29,90,26.4,89,19,84.79Z"/><path class="cls-16" d="M10.62,87.5c2.07-1,8.41-2.53,4.16-4.63C15.76,84.5,13.65,85.82,10.62,87.5Z"/><path class="cls-19" d="M16.92,90.39c3.82-2.43,2.42-4.68,1.76-6.09,3.13,5-1.84,5.48-2,7.19C16.61,91.74,16,91,16.92,90.39Z"/><path class="cls-19" d="M17.15,91.67c-.32.21-.48.42-.38.65.72-.81,6.06,0,6.77-2.29C22.31,91.36,18.89,91.37,17.15,91.67Z"/><path class="cls-53" d="M94.26,92.07c-1.86,1.61,2.7,1.79,3.79,2.24.49.51,1.63.85,4,.7l0-.06c1-.75,8.91-.58,6.55-2.8Z"/><path class="cls-16" d="M104.2,86.86c.94,1.73-1.5,5.66-4.15,7.37,2.13.44,2.16-.38,3.08-.47C111.54,92.87,107.17,88.43,104.2,86.86Z"/><path class="cls-17" d="M95.09,92.34c-1.47-.17-.74-2,.7-2.77,2.07-1,8.14-2.66,4.16-4.63C107.38,85.22,100.72,93,95.09,92.34Z"/><path class="cls-16" d="M95.09,92.34a.77.77,0,0,1-.79-.92c.07-.64-.08.44,2-.36,3.33-1.3,8.94-4.06,3.65-6.12C107.38,85.22,100.72,93,95.09,92.34Z"/><path class="cls-18" d="M94.3,91.42c.08.52.54,1,2.57,0,4.39-2,8.84-5.19,3.08-6.52,6.85.26,3.59,8.39-1.66,8.89C97.46,93.16,93.77,93.73,94.3,91.42Z"/><path class="cls-19" d="M97.93,92.8a4.74,4.74,0,0,1-2.12,0,4.16,4.16,0,0,1-1.52-.66c.38,1.43,3.28,1.08,4,1.66A6,6,0,0,0,99,93.7,2.3,2.3,0,0,1,97.93,92.8Z"/><path class="cls-17" d="M98,93.59c-1.15-1.28-.3-2.42,1.14-3.15,2.07-1,7.15-4.16.82-5.5C109.46,85.87,99.44,93.16,98,93.59Z"/><path class="cls-16" d="M102.05,94.4c-6.33.41-3.92-2.77-3.57-3,4.2-2.13,8.54-5.49,1.47-6.51,7.32.37,4.79,7.19.08,8.17C99.52,93.22,99.49,93.28,102.05,94.4Z"/><path class="cls-18" d="M102.05,94.4c-4.61.13-2.81-1.4-1.83-1.88,4.72-2.34,4.29-4.73,3.63-6.14C107.42,92.05,100.43,91.92,102.05,94.4Z"/><path class="cls-18" d="M104.2,86.86c8.7,5.38-3,5.93-2.26,7.54.82-.93,7.71.25,6.76-3.49C108.26,89.15,104.68,87.11,104.2,86.86Z"/><path class="cls-17" d="M104.17,86.87c4.29,3.64-2.24,5.94-2.26,7.32C103.46,92.12,111.56,91.12,104.17,86.87Z"/><path class="cls-16" d="M95.79,89.57c2.07-1,8.41-2.52,4.16-4.63C100.93,86.58,98.82,87.9,95.79,89.57Z"/><path class="cls-19" d="M102.09,92.47c3.82-2.43,2.42-4.68,1.76-6.09,3.13,5-1.84,5.48-2,7.19C101.78,93.82,101.14,93.07,102.09,92.47Z"/><path class="cls-19" d="M102.32,93.75c-.32.2-.48.41-.38.65.72-.81,6.06,0,6.77-2.29C107.48,93.44,104.06,93.45,102.32,93.75Z"/><path class="cls-54" d="M21.11,92.7c-1.86,1.61,2.69,1.79,3.79,2.24.49.51,1.63.85,4,.7l0-.06c1-.75,8.91-.58,6.55-2.8Z"/><path class="cls-16" d="M31,87.49c.95,1.73-1.49,5.66-4.14,7.37,2.13.44,2.16-.38,3.08-.47C38.38,93.5,34,89.06,31,87.49Z"/><path class="cls-17" d="M21.94,93c-1.47-.17-.74-2,.7-2.77,2.07-1,8.14-2.66,4.16-4.63C34.23,85.85,27.57,93.61,21.94,93Z"/><path class="cls-16" d="M21.94,93a.78.78,0,0,1-.8-.92c.08-.64-.07.44,2-.36,3.32-1.3,8.94-4.06,3.65-6.12C34.23,85.85,27.57,93.61,21.94,93Z"/><path class="cls-18" d="M21.14,92.05c.09.52.55,1,2.57,0,4.4-2,8.85-5.19,3.09-6.52,6.85.26,3.59,8.39-1.67,8.89C24.31,93.79,20.62,94.36,21.14,92.05Z"/><path class="cls-19" d="M24.78,93.43a4.74,4.74,0,0,1-2.12,0,4.09,4.09,0,0,1-1.52-.66c.38,1.43,3.28,1.08,4,1.66a5.86,5.86,0,0,0,.75-.13A2.3,2.3,0,0,1,24.78,93.43Z"/><path class="cls-17" d="M24.84,94.22c-1.15-1.28-.3-2.42,1.14-3.14,2.07-1,7.15-4.17.82-5.51C36.31,86.5,26.28,93.79,24.84,94.22Z"/><path class="cls-16" d="M28.89,95c-6.32.41-3.92-2.77-3.56-3,4.2-2.13,8.54-5.49,1.47-6.51,7.32.37,4.79,7.19.08,8.17C26.37,93.85,26.33,93.91,28.89,95Z"/><path class="cls-18" d="M28.89,95c-4.6.13-2.8-1.4-1.82-1.88,4.72-2.34,4.29-4.73,3.62-6.14C34.27,92.68,27.28,92.55,28.89,95Z"/><path class="cls-18" d="M31,87.49c8.7,5.38-2.95,5.93-2.26,7.54.83-.93,7.72.25,6.77-3.49C35.11,89.78,31.53,87.74,31,87.49Z"/><path class="cls-17" d="M31,87.5c4.28,3.64-2.24,5.94-2.26,7.32C30.31,92.75,38.41,91.75,31,87.5Z"/><path class="cls-16" d="M22.64,90.2c2.07-1,8.41-2.52,4.16-4.63C27.78,87.21,25.66,88.53,22.64,90.2Z"/><path class="cls-19" d="M28.94,93.1c3.82-2.43,2.42-4.68,1.75-6.09,3.13,5-1.83,5.48-2,7.19C28.62,94.45,28,93.7,28.94,93.1Z"/><path class="cls-19" d="M29.17,94.38c-.32.2-.49.41-.39.65.73-.81,6.07,0,6.78-2.29C34.33,94.07,30.9,94.08,29.17,94.38Z"/><path class="cls-55" d="M80.48,93.92c-1.87,1.61,2.69,1.79,3.78,2.24.49.51,1.63.86,4,.7a.21.21,0,0,1,0-.06c1-.75,8.92-.57,6.55-2.79Z"/><path class="cls-16" d="M90.41,88.72c1,1.72-1.5,5.65-4.15,7.36,2.14.45,2.16-.37,3.08-.47C97.75,94.72,93.38,90.28,90.41,88.72Z"/><path class="cls-17" d="M81.31,94.19c-1.48-.16-.75-2,.69-2.76,2.07-1,8.14-2.67,4.16-4.63C93.59,87.08,86.93,94.84,81.31,94.19Z"/><path class="cls-16" d="M81.31,94.19c-.63-.07-.86-.45-.8-.92.07-.64-.08.44,2-.36,3.33-1.29,8.94-4.06,3.65-6.11C93.59,87.08,86.93,94.84,81.31,94.19Z"/><path class="cls-18" d="M80.51,93.27c.08.52.54,1,2.57,0,4.4-2,8.84-5.2,3.08-6.52,6.85.25,3.59,8.38-1.66,8.88C83.67,95,80,95.58,80.51,93.27Z"/><path class="cls-19" d="M84.14,94.66a4.89,4.89,0,0,1-2.12,0A4.16,4.16,0,0,1,80.5,94c.38,1.43,3.28,1.08,4,1.66a4.58,4.58,0,0,0,.74-.13A2.32,2.32,0,0,1,84.14,94.66Z"/><path class="cls-17" d="M84.2,95.44c-1.15-1.28-.3-2.42,1.14-3.14,2.07-1,7.15-4.17.82-5.5C95.67,87.72,85.65,95,84.2,95.44Z"/><path class="cls-16" d="M88.26,96.25c-6.33.41-3.92-2.77-3.57-3,4.2-2.13,8.54-5.49,1.47-6.5,7.32.37,4.79,7.19.08,8.17C85.73,95.07,85.7,95.14,88.26,96.25Z"/><path class="cls-18" d="M88.26,96.25c-4.61.14-2.81-1.39-1.83-1.88,4.72-2.34,4.29-4.73,3.63-6.14C93.63,93.91,86.64,93.77,88.26,96.25Z"/><path class="cls-18" d="M90.41,88.72c8.7,5.37-3,5.92-2.26,7.53.82-.92,7.71.25,6.77-3.49C94.47,91,90.89,89,90.41,88.72Z"/><path class="cls-17" d="M90.39,88.72c4.28,3.64-2.24,6-2.27,7.32C89.67,94,97.78,93,90.39,88.72Z"/><path class="cls-16" d="M82,91.43c2.07-1,8.41-2.52,4.16-4.63C87.14,88.43,85,89.75,82,91.43Z"/><path class="cls-19" d="M88.3,94.32c3.82-2.43,2.42-4.68,1.76-6.09,3.13,5-1.84,5.48-2,7.2C88,95.67,87.36,94.93,88.3,94.32Z"/><path class="cls-19" d="M88.53,95.6c-.32.21-.48.42-.38.65.72-.81,6.06,0,6.77-2.29C93.69,95.29,90.27,95.3,88.53,95.6Z"/><path class="cls-56" d="M34.76,94.17c-1.86,1.61,2.69,1.79,3.79,2.24.49.51,1.63.85,4,.7l0-.06c1-.75,8.91-.58,6.55-2.8Z"/><path class="cls-16" d="M44.69,89c1,1.73-1.49,5.65-4.14,7.37,2.13.44,2.16-.38,3.08-.47C52,95,47.67,90.53,44.69,89Z"/><path class="cls-17" d="M35.59,94.44c-1.47-.17-.74-2,.7-2.77,2.07-1,8.14-2.66,4.16-4.63C47.88,87.32,41.22,95.08,35.59,94.44Z"/><path class="cls-16" d="M35.59,94.44a.78.78,0,0,1-.8-.93c.08-.63-.07.45,2-.35,3.32-1.3,8.94-4.06,3.65-6.12C47.88,87.32,41.22,95.08,35.59,94.44Z"/><path class="cls-18" d="M34.79,93.51c.09.53.55,1,2.57,0,4.4-2,8.85-5.19,3.09-6.52,6.85.26,3.59,8.39-1.67,8.89C38,95.26,34.27,95.83,34.79,93.51Z"/><path class="cls-19" d="M38.43,94.9a4.74,4.74,0,0,1-2.12,0,4.34,4.34,0,0,1-1.52-.66c.38,1.43,3.28,1.08,4,1.66a5.86,5.86,0,0,0,.75-.13A2.3,2.3,0,0,1,38.43,94.9Z"/><path class="cls-17" d="M38.49,95.68c-1.15-1.27-.3-2.42,1.14-3.14,2.07-1,7.15-4.16.82-5.5C50,88,39.93,95.25,38.49,95.68Z"/><path class="cls-16" d="M42.54,96.49c-6.32.42-3.92-2.76-3.56-2.94,4.2-2.13,8.54-5.5,1.47-6.51,7.32.37,4.79,7.19.08,8.17C40,95.32,40,95.38,42.54,96.49Z"/><path class="cls-18" d="M42.54,96.49c-4.6.14-2.8-1.39-1.82-1.87,4.72-2.34,4.29-4.73,3.62-6.14C47.92,94.15,40.93,94,42.54,96.49Z"/><path class="cls-18" d="M44.69,89c8.7,5.38-2.95,5.92-2.26,7.54.83-.93,7.72.25,6.77-3.49C48.76,91.25,45.18,89.21,44.69,89Z"/><path class="cls-17" d="M44.67,89c4.29,3.64-2.24,5.94-2.26,7.32C44,94.22,52.06,93.22,44.67,89Z"/><path class="cls-16" d="M36.29,91.67c2.07-1,8.41-2.52,4.16-4.63C41.43,88.68,39.31,90,36.29,91.67Z"/><path class="cls-19" d="M42.59,94.57c3.82-2.44,2.42-4.68,1.75-6.09,3.13,5-1.83,5.48-2,7.19C42.27,95.92,41.64,95.17,42.59,94.57Z"/><path class="cls-19" d="M42.82,95.85c-.32.2-.49.41-.39.65.73-.81,6.07,0,6.78-2.29C48,95.54,44.55,95.55,42.82,95.85Z"/><path class="cls-57" d="M65.15,94.52c-1.87,1.61,2.69,1.79,3.78,2.24.49.51,1.64.85,4,.7,0,0,0,0,0-.06,1-.75,8.92-.58,6.55-2.79Z"/><path class="cls-16" d="M75.08,89.32c1,1.72-1.5,5.65-4.15,7.36,2.14.44,2.17-.38,3.08-.47C82.42,95.32,78.05,90.88,75.08,89.32Z"/><path class="cls-17" d="M66,94.79c-1.48-.17-.75-2,.69-2.77,2.07-1,8.14-2.66,4.16-4.63C78.26,87.67,71.6,95.43,66,94.79Z"/><path class="cls-16" d="M66,94.79c-.63-.07-.86-.45-.8-.92.07-.64-.08.44,2-.36,3.33-1.29,8.94-4.06,3.65-6.12C78.26,87.67,71.6,95.43,66,94.79Z"/><path class="cls-18" d="M65.18,93.87c.08.52.54,1,2.57,0,4.4-2,8.84-5.19,3.08-6.52,6.85.26,3.59,8.39-1.66,8.89C68.35,95.61,64.66,96.18,65.18,93.87Z"/><path class="cls-19" d="M68.81,95.26a4.84,4.84,0,0,1-2.11,0,4.14,4.14,0,0,1-1.53-.66c.38,1.43,3.28,1.08,4,1.66a6.54,6.54,0,0,0,.75-.13A2.3,2.3,0,0,1,68.81,95.26Z"/><path class="cls-17" d="M68.87,96c-1.15-1.28-.3-2.42,1.14-3.14,2.07-1,7.15-4.17.82-5.51C80.34,88.32,70.32,95.61,68.87,96Z"/><path class="cls-16" d="M72.93,96.85c-6.33.41-3.92-2.77-3.57-2.95,4.2-2.13,8.55-5.49,1.47-6.51,7.32.37,4.79,7.19.08,8.18C70.4,95.67,70.37,95.73,72.93,96.85Z"/><path class="cls-18" d="M72.93,96.85C68.32,97,70.12,95.46,71.1,95c4.72-2.34,4.3-4.73,3.63-6.14C78.3,94.5,71.31,94.37,72.93,96.85Z"/><path class="cls-18" d="M75.08,89.32c8.7,5.37-3,5.92-2.26,7.53.83-.92,7.71.25,6.77-3.49C79.14,91.6,75.56,89.56,75.08,89.32Z"/><path class="cls-17" d="M75.06,89.32c4.28,3.64-2.24,5.94-2.26,7.32C74.34,94.57,82.45,93.57,75.06,89.32Z"/><path class="cls-16" d="M66.67,92c2.07-1,8.41-2.52,4.16-4.63C71.81,89,69.7,90.35,66.67,92Z"/><path class="cls-19" d="M73,94.92c3.82-2.43,2.43-4.68,1.76-6.09,3.13,5-1.84,5.48-2,7.19C72.66,96.27,72,95.53,73,94.92Z"/><path class="cls-19" d="M73.2,96.2c-.32.2-.48.42-.38.65.72-.81,6.06,0,6.78-2.29C78.37,95.89,74.94,95.9,73.2,96.2Z"/><path class="cls-58" d="M49.45,94.44c-1.87,1.61,2.69,1.79,3.78,2.25.49.5,1.64.85,4,.69l0-.06c1-.74,8.91-.57,6.55-2.79Z"/><path class="cls-16" d="M59.38,89.24c.95,1.72-1.5,5.65-4.15,7.37,2.14.44,2.17-.38,3.08-.48C66.72,95.24,62.35,90.8,59.38,89.24Z"/><path class="cls-17" d="M50.28,94.72c-1.47-.17-.75-2,.7-2.77,2.07-1,8.13-2.66,4.16-4.63C62.57,87.6,55.91,95.36,50.28,94.72Z"/><path class="cls-16" d="M50.28,94.72a.78.78,0,0,1-.8-.93c.08-.63-.07.45,2-.36,3.33-1.29,8.94-4.06,3.66-6.11C62.57,87.6,55.91,95.36,50.28,94.72Z"/><path class="cls-18" d="M49.48,93.79c.08.52.54,1,2.57,0,4.4-2,8.84-5.2,3.09-6.52,6.85.26,3.59,8.38-1.67,8.89C52.65,95.54,49,96.1,49.48,93.79Z"/><path class="cls-19" d="M53.11,95.18a4.69,4.69,0,0,1-2.11,0,4.15,4.15,0,0,1-1.53-.67c.38,1.44,3.28,1.08,4,1.67a6.18,6.18,0,0,0,.75-.13A2.37,2.37,0,0,1,53.11,95.18Z"/><path class="cls-17" d="M53.17,96c-1.14-1.28-.3-2.42,1.14-3.14,2.07-1,7.15-4.16.83-5.5C64.64,88.25,54.62,95.53,53.17,96Z"/><path class="cls-16" d="M57.23,96.77c-6.33.42-3.92-2.77-3.57-3,4.2-2.12,8.55-5.49,1.48-6.5,7.31.37,4.78,7.19.07,8.17C54.7,95.6,54.67,95.66,57.23,96.77Z"/><path class="cls-18" d="M57.23,96.77c-4.61.14-2.81-1.39-1.83-1.88,4.72-2.34,4.3-4.72,3.63-6.14C62.61,94.43,55.61,94.3,57.23,96.77Z"/><path class="cls-18" d="M59.38,89.24c8.7,5.38-3,5.92-2.26,7.54.83-.93,7.72.24,6.77-3.49C63.44,91.52,59.86,89.49,59.38,89.24Z"/><path class="cls-17" d="M59.36,89.25c4.28,3.64-2.24,5.94-2.26,7.32C58.65,94.5,66.75,93.5,59.36,89.25Z"/><path class="cls-16" d="M51,92c2.07-1,8.4-2.52,4.16-4.63C56.12,89,54,90.28,51,92Z"/><path class="cls-19" d="M57.28,94.85c3.82-2.44,2.42-4.68,1.75-6.1,3.13,5-1.83,5.49-2,7.2C57,96.19,56.33,95.45,57.28,94.85Z"/><path class="cls-19" d="M57.5,96.12c-.32.21-.48.42-.38.66.72-.81,6.06,0,6.78-2.29C62.67,95.81,59.24,95.82,57.5,96.12Z"/></g></g></svg>